<?xml version="1.0" standalone="no"?>
<!DOCTYPE svg PUBLIC "-//W3C//DTD SVG 20010904//EN"
 "http://www.w3.org/TR/2001/REC-SVG-20010904/DTD/svg10.dtd">
<svg version="1.0" xmlns="http://www.w3.org/2000/svg"
 width="150.000000pt" height="150.000000pt" viewBox="0 0 150.000000 150.000000"
 preserveAspectRatio="xMidYMid meet">

<g transform="translate(0.000000,150.000000) scale(0.100000,-0.100000)"
fill="#000000" stroke="none">
<path d="M0 750 l0 -750 353 1 c223 1 332 4 297 10 -300 44 -538 255 -619 549
-28 101 -29 267 -1 374 66 259 277 470 538 537 102 26 262 26 365 -1 294 -75
512 -318 556 -620 6 -35 9 74 10 298 l1 352 -750 0 -750 0 0 -750z"/>
<path d="M674 1469 c-293 -27 -549 -247 -625 -536 -29 -109 -28 -264 1 -370
35 -127 93 -226 190 -323 203 -204 486 -269 753 -173 317 113 521 441 478 767
-23 173 -88 303 -211 426 -159 160 -358 230 -586 209z m228 -285 c41 -12 58
-22 58 -33 0 -33 -20 -40 -59 -23 -52 23 -222 22 -276 -1 -38 -17 -40 -17 -52
0 -20 26 -11 36 48 55 71 22 205 23 281 2z m-47 -70 c33 -8 63 -18 68 -23 7
-7 -152 -330 -163 -331 -3 0 -42 74 -87 164 l-82 165 42 15 c79 29 141 32 222
10z m-365 -13 c14 -27 15 -25 -30 -55 -56 -37 -127 -137 -148 -208 -17 -57
-30 -68 -59 -50 -23 14 19 124 81 211 28 40 121 120 138 121 4 0 12 -9 18 -19z
m580 -8 c80 -53 160 -161 186 -251 14 -46 14 -56 3 -63 -27 -17 -38 -9 -50 34
-18 68 -58 133 -118 190 -31 30 -62 56 -70 58 -12 4 -12 8 0 27 17 26 18 27
49 5z m-466 -205 c47 -90 84 -164 83 -165 -2 -1 -61 7 -132 17 -185 28 -185
28 -185 -15 0 -24 -5 -35 -15 -35 -11 0 -15 11 -15 39 0 22 -5 41 -12 43 -16
6 4 76 39 136 28 48 120 142 139 142 7 0 51 -73 98 -162z m461 110 c56 -49 90
-101 115 -174 20 -56 18 -64 -13 -64 -11 0 -49 -5 -83 -11 l-63 -11 -3 -51
c-4 -70 -28 -77 -28 -7 l0 51 -32 -3 c-28 -2 -34 -8 -36 -30 -4 -36 -32 -38
-32 -2 0 23 -3 25 -30 19 -16 -4 -30 -3 -30 1 0 18 166 324 176 324 6 0 32
-19 59 -42z m-622 -414 c3 -3 2 -17 -3 -30 -8 -19 -6 -24 6 -24 17 0 16 -29 0
-75 -7 -18 -6 -18 11 2 10 12 26 34 36 48 19 27 57 34 57 11 0 -8 -11 -23 -25
-34 -25 -20 -33 -42 -16 -42 5 0 26 20 47 45 37 45 57 55 70 33 4 -6 -4 -21
-19 -34 -28 -24 -37 -49 -15 -42 19 7 51 54 52 79 1 27 26 39 26 12 0 -11 6
-28 14 -38 14 -19 15 -19 27 8 7 15 16 27 21 27 12 0 10 -38 -3 -62 -8 -16 -8
-19 1 -13 7 4 18 23 26 41 26 63 43 36 19 -31 -5 -16 -3 -15 14 5 11 14 21 20
21 14 0 -7 -13 -26 -28 -42 -16 -17 -36 -42 -46 -56 -17 -27 -40 -34 -52 -15
-4 7 4 20 17 30 24 18 24 18 4 33 -12 9 -24 11 -30 5 -12 -12 -45 -12 -45 0 0
5 -13 4 -30 -2 -22 -8 -33 -8 -41 0 -9 9 -18 9 -36 0 -18 -8 -29 -8 -43 1 -12
7 -21 8 -25 2 -3 -6 -13 -10 -21 -10 -16 0 -20 45 -4 55 13 8 13 25 1 25 -5 0
-18 -18 -28 -40 -10 -22 -25 -40 -34 -40 -8 0 -26 -11 -38 -24 -44 -46 -102
-42 -115 9 -8 31 26 114 59 145 15 14 33 20 51 18 25 -2 29 -8 32 -36 2 -22
-2 -34 -13 -38 -23 -9 -28 1 -14 25 15 23 7 36 -16 27 -19 -7 -68 -109 -63
-132 2 -9 11 -22 21 -28 16 -9 25 -4 61 36 24 26 53 72 66 102 21 54 30 63 43
50z m657 -9 c0 -9 -12 -38 -26 -66 -14 -28 -23 -53 -20 -56 4 -5 41 48 50 72
2 6 7 6 12 2 4 -4 3 -22 -4 -39 -17 -46 -7 -46 22 1 17 26 34 41 46 41 11 0
20 -4 20 -10 0 -5 -6 -10 -14 -10 -13 0 -41 -58 -32 -68 9 -8 35 14 58 48 25
37 68 53 68 26 0 -16 -26 -46 -41 -46 -5 0 -9 -7 -9 -15 0 -23 16 -18 44 16
31 36 35 24 5 -15 -21 -27 -62 -35 -75 -15 -4 8 -9 8 -17 0 -14 -14 -57 -14
-57 0 0 8 -4 8 -12 2 -16 -12 -86 -14 -93 -3 -3 5 4 30 16 57 11 26 25 58 30
71 10 25 29 30 29 7z m-88 -12 c21 -19 24 -53 4 -53 -9 0 -12 7 -9 19 5 18
-13 39 -24 27 -3 -3 0 -26 7 -51 18 -65 16 -96 -10 -117 -29 -23 -72 -23 -101
1 -20 16 -22 23 -14 47 16 44 84 45 85 2 0 -5 -7 -8 -15 -8 -8 0 -15 7 -15 15
0 22 -28 18 -41 -6 -9 -18 -8 -25 8 -41 16 -15 25 -17 45 -9 34 13 39 41 21
106 -9 30 -13 61 -10 70 8 20 46 19 69 -2z m120 -8 c0 -5 -5 -11 -11 -13 -6
-2 -11 4 -11 13 0 9 5 15 11 13 6 -2 11 -8 11 -13z"/>
<path d="M690 1065 c-26 -32 13 -81 48 -59 21 14 28 54 10 65 -20 13 -44 11
-58 -6z"/>
<path d="M753 924 c-8 -20 8 -36 26 -25 15 10 8 41 -9 41 -6 0 -13 -7 -17 -16z"/>
<path d="M402 878 c-28 -28 -7 -78 33 -78 40 0 61 50 33 78 -7 7 -21 12 -33
12 -12 0 -26 -5 -33 -12z"/>
<path d="M541 832 c-20 -38 31 -71 58 -38 9 11 10 20 1 35 -13 26 -46 27 -59
3z"/>
<path d="M1020 950 c0 -23 25 -27 33 -6 7 16 -1 26 -20 26 -7 0 -13 -9 -13
-20z"/>
<path d="M937 843 c-14 -14 -6 -53 13 -63 15 -8 24 -6 40 10 16 16 18 25 10
40 -10 19 -49 27 -63 13z"/>
<path d="M515 499 c-11 -17 1 -21 15 -4 8 9 8 15 2 15 -6 0 -14 -5 -17 -11z"/>
<path d="M649 498 c-7 -15 -6 -58 2 -58 5 0 9 14 9 30 0 25 -6 39 -11 28z"/>
<path d="M1250 505 c-8 -9 -8 -15 -2 -15 12 0 26 19 19 26 -2 2 -10 -2 -17
-11z"/>
<path d="M1490 668 c0 -17 -7 -61 -16 -97 -73 -294 -318 -516 -619 -560 -42
-6 48 -9 293 -10 l352 -1 0 350 c0 193 -2 350 -5 350 -3 0 -5 -14 -5 -32z"/>
</g>
</svg>
