<?xml version="1.0" encoding="UTF-8"?>
<svg version="1.1" xmlns="http://www.w3.org/2000/svg" width="150" height="150">
<path d="M0 0 C49.5 0 99 0 150 0 C150 49.5 150 99 150 150 C100.5 150 51 150 0 150 C0 100.5 0 51 0 0 Z " fill="#711014" transform="translate(0,0)"/>
<path d="M0 0 C0.69867188 -0.00386719 1.39734375 -0.00773437 2.1171875 -0.01171875 C5.84152159 -0.0046917 9.42216662 0.02090298 13 1.125 C13 1.785 13 2.445 13 3.125 C14.98 3.125 16.96 3.125 19 3.125 C19 3.785 19 4.445 19 5.125 C20.98045559 5.78679847 20.98045559 5.78679847 23 6.125 C21.34959209 10.60716043 19.14675146 14.68857585 16.875 18.875 C12.25597114 27.47781108 8.07473958 36.25383673 4 45.125 C8.85407412 43.50697529 11.76032232 39.49775186 14.1015625 35.01660156 C15.64985894 31.75624656 17.17069743 28.48615421 18.64453125 25.19140625 C19.01964844 24.39863281 19.39476563 23.60585938 19.78125 22.7890625 C20.11189453 22.06154785 20.44253906 21.3340332 20.78320312 20.58447266 C21.18474609 20.10284668 21.58628906 19.6212207 22 19.125 C27.50695423 19.61868067 31.45953543 24.25376538 35 28.125 C37.29401811 31.66597401 39.20238843 35.31149545 41 39.125 C41.33 39.785 41.66 40.445 42 41.125 C42.039992 43.12460012 42.04346799 45.12547242 42 47.125 C38.535 47.62 38.535 47.62 35 48.125 C35 48.785 35 49.445 35 50.125 C32.36 50.455 29.72 50.785 27 51.125 C27.04640625 51.83527344 27.0928125 52.54554687 27.140625 53.27734375 C27.17671875 54.19644531 27.2128125 55.11554688 27.25 56.0625 C27.29640625 56.97902344 27.3428125 57.89554688 27.390625 58.83984375 C27.26171875 59.59394531 27.1328125 60.34804687 27 61.125 C24.984375 61.81640625 24.984375 61.81640625 23 62.125 C23 62.785 23 63.445 23 64.125 C24.32 63.795 25.64 63.465 27 63.125 C27 64.115 27 65.105 27 66.125 C27.495 64.145 27.495 64.145 28 62.125 C33.75 64 33.75 64 36 65.125 C36 66.445 36 67.765 36 69.125 C35.401875 69.228125 34.80375 69.33125 34.1875 69.4375 C33.465625 69.664375 32.74375 69.89125 32 70.125 C30.20728609 73.61297488 30.20728609 73.61297488 29 77.125 C29.61875 75.97 30.2375 74.815 30.875 73.625 C31.9296875 71.65625 31.9296875 71.65625 33 70.125 C33.66 70.125 34.32 70.125 35 70.125 C34.67 72.435 34.34 74.745 34 77.125 C34.30292969 76.60808594 34.60585937 76.09117188 34.91796875 75.55859375 C36.17600477 73.58057404 37.3675527 71.81039153 39 70.125 C41.8125 70.1875 41.8125 70.1875 44 71.125 C43.34 71.16625 42.68 71.2075 42 71.25 C41.34 71.53875 40.68 71.8275 40 72.125 C39.66659529 75.16695427 39.66659529 75.16695427 40 78.125 C40.45890625 77.5475 40.9178125 76.97 41.390625 76.375 C42.00421875 75.6325 42.6178125 74.89 43.25 74.125 C43.85328125 73.3825 44.4565625 72.64 45.078125 71.875 C47 70.125 47 70.125 51 70.125 C50.75 72.5625 50.75 72.5625 50 75.125 C47.9375 75.75 47.9375 75.75 46 76.125 C46 77.115 46 78.105 46 79.125 C48.43929746 77.19923885 50.80090595 75.32409405 53 73.125 C52.44299928 76.35560419 51.70784878 78.1908223 49 80.125 C46.5 80.3125 46.5 80.3125 44 80.125 C43.01 80.125 42.02 80.125 41 80.125 C34 80.125 34 80.125 31.625 80.0625 C29.14185754 80.12162244 27.29267793 80.17630568 25 81.125 C24.731875 81.78242187 24.46375 82.43984375 24.1875 83.1171875 C23 85.125 23 85.125 20.79296875 85.8046875 C11.01576422 86.53761138 11.01576422 86.53761138 8 84.125 C7.6875 80.5 7.6875 80.5 8 77.125 C7.67 77.455 7.34 77.785 7 78.125 C6.236875 78.269375 5.47375 78.41375 4.6875 78.5625 C2.029925 79.11873663 0.23163807 79.58593926 -2 81.125 C-2.33 81.970625 -2.66 82.81625 -3 83.6875 C-3.33 84.491875 -3.66 85.29625 -4 86.125 C-6.125 86.9375 -6.125 86.9375 -8 87.125 C-8 85.805 -8 84.485 -8 83.125 C-7.01 82.795 -6.02 82.465 -5 82.125 C-5 81.465 -5 80.805 -5 80.125 C-5.66 80.125 -6.32 80.125 -7 80.125 C-7 79.465 -7 78.805 -7 78.125 C-7.99 78.785 -8.98 79.445 -10 80.125 C-11.67654729 79.84557545 -13.34608154 79.51671753 -15 79.125 C-15.33 79.455 -15.66 79.785 -16 80.125 C-17.66608987 80.16884447 -19.33380554 80.1646713 -21 80.125 C-21.99 80.125 -22.98 80.125 -24 80.125 C-27.66666667 80.125 -31.33333333 80.125 -35 80.125 C-35 78.145 -35 76.165 -35 74.125 C-35.391875 75.07375 -35.78375 76.0225 -36.1875 77 C-38.28618597 80.61842409 -39.17569236 80.85023079 -43 82.125 C-43.825 82.82625 -44.65 83.5275 -45.5 84.25 C-48 86.125 -48 86.125 -50.625 86.5625 C-53 86.125 -53 86.125 -54.8125 85 C-56.64725698 82.1030153 -56.50466203 80.53146872 -56 77.125 C-54.02890437 72.70702705 -51.80374665 68.22831249 -48 65.125 C-44.875 64.875 -44.875 64.875 -42 65.125 C-41 66.125 -41 66.125 -40.6875 69.125 C-40.790625 70.115 -40.89375 71.105 -41 72.125 C-43 73 -43 73 -45 73.125 C-44.34 71.145 -43.68 69.165 -43 67.125 C-45.49004504 67.68576801 -45.49004504 67.68576801 -48 69.125 C-49.938548 73.2928782 -50.45523286 77.58527386 -51 82.125 C-49.15826801 82.88163309 -49.15826801 82.88163309 -47 83.125 C-41.78559653 79.43090854 -37.93785037 72.06578372 -36 66.125 C-36.42302744 62.6760868 -36.42302744 62.6760868 -38 60.125 C-38.33 59.465 -38.66 58.805 -39 58.125 C-39.825 57.96 -40.65 57.795 -41.5 57.625 C-42.325 57.46 -43.15 57.295 -44 57.125 C-45 55.125 -45 55.125 -44.4375 51.625 C-44.623125 50.47 -44.80875 49.315 -45 48.125 C-48.25111154 46.80512871 -51.52026324 46.42947697 -55 46.125 C-53.99919451 30.61251486 -46.58837449 21.14241806 -35.4296875 10.875 C-32.79026904 8.97393976 -31.2661718 8.08782406 -28 8.125 C-26.26171875 9.87109375 -26.26171875 9.87109375 -24.6875 12.5625 C-24.0996875 13.56667969 -23.511875 14.57085937 -22.90625 15.60546875 C-22.2651474 16.77554835 -21.63008314 17.94894981 -21 19.125 C-20.649375 19.77936035 -20.29875 20.4337207 -19.9375 21.10791016 C-18.83698651 23.18856848 -17.75683023 25.27815419 -16.6875 27.375 C-16.18126099 28.36584595 -16.18126099 28.36584595 -15.66479492 29.37670898 C-14.10047043 32.53818703 -12.80238171 35.56789362 -11.890625 38.98046875 C-10.87980332 42.54937864 -9.65250857 43.63324953 -7 46.125 C-5.93988057 48.09379323 -4.92529151 50.08935867 -4 52.125 C-4.55215972 47.23764029 -6.12027566 43.37157767 -8.375 39.0625 C-8.71789062 38.38928711 -9.06078125 37.71607422 -9.4140625 37.02246094 C-11.55509045 32.84029455 -13.76052551 28.69359063 -15.9765625 24.55078125 C-16.47752441 23.60920166 -16.97848633 22.66762207 -17.49462891 21.69750977 C-18.48627022 19.83822251 -19.48576846 17.98310117 -20.49365234 16.13256836 C-20.94949707 15.27928955 -21.4053418 14.42601074 -21.875 13.546875 C-22.28492188 12.78987305 -22.69484375 12.03287109 -23.1171875 11.25292969 C-24 9.125 -24 9.125 -24 5.125 C-21.76953125 3.89453125 -21.76953125 3.89453125 -18.8125 2.9375 C-17.36810547 2.45216797 -17.36810547 2.45216797 -15.89453125 1.95703125 C-10.51795149 0.41153666 -5.58774451 -0.03092848 0 0 Z " fill="#721113" transform="translate(77,26.875)"/>
<path d="M0 0 C49.5 0 99 0 150 0 C150 49.5 150 99 150 150 C100.5 150 51 150 0 150 C0 100.5 0 51 0 0 Z M48 5 C47.01902344 5.4125 46.03804687 5.825 45.02734375 6.25 C25.0427589 15.32686951 12.59705877 31.0682519 3.7890625 50.7421875 C-1.61862622 66.21567304 -1.54175991 86.89027136 5 102 C5.50917969 103.18464844 6.01835938 104.36929688 6.54296875 105.58984375 C10.02199486 113.23496043 14.3782368 119.77350529 20 126 C20.84691406 126.95132813 20.84691406 126.95132813 21.7109375 127.921875 C31.66212171 138.48040848 48.2414199 148.28590091 63.04321289 149.18481445 C66.67703085 149.26909683 70.30281983 149.27265775 73.9375 149.25 C75.17435547 149.25773438 76.41121094 149.26546875 77.68554688 149.2734375 C84.16220867 149.25959108 89.82131062 148.96312873 96 147 C97.55074219 146.51853516 97.55074219 146.51853516 99.1328125 146.02734375 C120.20439277 138.35244702 134.22114579 124.51548357 143.9375 104.34765625 C150.95666386 88.83840081 152.13074109 67.71008299 146.875 51.4375 C145.98107882 49.26404459 145.02708434 47.11378836 144 45 C143.31357422 43.52273437 143.31357422 43.52273437 142.61328125 42.015625 C139.24806234 35.34050586 134.90974002 29.61250673 130 24 C129.44570312 23.36191406 128.89140625 22.72382813 128.3203125 22.06640625 C116.8406093 9.7353375 98.26578814 1.23570312 81.4765625 0.56640625 C79.19282776 0.54301374 76.90876465 0.54223704 74.625 0.5625 C73.43124756 0.57007324 72.23749512 0.57764648 71.00756836 0.58544922 C62.62648941 0.74266258 55.67383042 1.43595684 48 5 Z " fill="#6F1014" transform="translate(0,0)"/>
<path d="M0 0 C1.33332095 2.6666419 0.67102033 4.16680303 0 7 C0.886875 6.835 1.77375 6.67 2.6875 6.5 C5.54828309 6.06818368 8.11947665 5.92214802 11 6 C11.99 6 12.98 6 14 6 C15.2684375 6.0309375 15.2684375 6.0309375 16.5625 6.0625 C19.00907507 6.17218753 19.00907507 6.17218753 21 5 C21 5.66 21 6.32 21 7 C23.31 6.34 25.62 5.68 28 5 C28 5.66 28 6.32 28 7 C28.66 7 29.32 7 30 7 C30 7.66 30 8.32 30 9 C29.01 9.66 28.02 10.32 27 11 C27 11.66 27 12.32 27 13 C28.94999129 12.80528889 28.94999129 12.80528889 31 12 C31.268125 11.401875 31.53625 10.80375 31.8125 10.1875 C33.69579264 6.71827671 36.49680602 5.71974977 40 4 C40.495 4.495 40.495 4.495 41 5 C41.33 4.34 41.66 3.68 42 3 C42.66 3.33 43.32 3.66 44 4 C43.95875 4.969375 43.9175 5.93875 43.875 6.9375 C43.91625 7.948125 43.9575 8.95875 44 10 C47.77295871 12.65245125 51.43661741 12.32297057 55.84765625 11.82421875 C58.15579381 11.22554234 58.15579381 11.22554234 58.87109375 9.14453125 C59.21178938 6.65530002 59.21178938 6.65530002 59 3 C59.33 3 59.66 3 60 3 C60 4.65 60 6.3 60 8 C60.70125 7.690625 61.4025 7.38125 62.125 7.0625 C65.08936657 5.96697322 67.87698108 5.43577008 71 5 C71 5.66 71 6.32 71 7 C71.928125 6.938125 72.85625 6.87625 73.8125 6.8125 C77.51498025 7.03029296 77.59572 7.49554167 80 10 C80.99 10.144375 81.98 10.28875 83 10.4375 C86 11 86 11 87.875 12.75 C89.18152386 15.36304771 89.24038873 17.11533524 89 20 C88.01 20 87.02 20 86 20 C86.06574219 20.74636719 86.13148438 21.49273437 86.19921875 22.26171875 C85.889017 26.52547215 83.61347292 28.0664268 80.58984375 30.8828125 C62.07061715 46.02221041 42.13708674 48.32366498 19 47 C14.3523657 46.40340324 10.24472148 44.97514496 6 43 C4.98421875 42.56429687 3.9684375 42.12859375 2.921875 41.6796875 C-5.00985632 38.03268541 -11.82640573 33.17359427 -18 27 C-17.63910592 23.51135721 -15.8589578 20.90967307 -14 18 C-14.66 17.67 -15.32 17.34 -16 17 C-15.38125 16.95875 -14.7625 16.9175 -14.125 16.875 C-13.42375 16.58625 -12.7225 16.2975 -12 16 C-11.26919734 14.02253397 -10.60578253 12.01927511 -10 10 C-8.625 8.125 -8.625 8.125 -7 7 C-5.68 7 -4.36 7 -3 7 C-2.32041397 4.60280568 -2.32041397 4.60280568 -2 2 C-1.34 1.34 -0.68 0.68 0 0 Z " fill="#6F1015" transform="translate(42,100)"/>
<path d="M0 0 C6.12528514 2.44310037 9.38592316 13.29258695 12.296875 19.00390625 C12.6381543 19.66849854 12.97943359 20.33309082 13.33105469 21.01782227 C14.91871935 24.19907571 16.24238665 27.23905244 17.16015625 30.6796875 C18.17083441 34.25490584 19.43187918 35.28065273 22.046875 37.81640625 C23.22631124 40.1056074 24.12004679 42.40665291 25.046875 44.81640625 C17.33439981 45.02023528 9.98333586 44.45614989 2.359375 43.31640625 C1.35970703 43.17332031 0.36003906 43.03023437 -0.66992188 42.8828125 C-3.09873517 42.53417901 -5.52631049 42.17864613 -7.953125 41.81640625 C-7.911875 42.60015625 -7.870625 43.38390625 -7.828125 44.19140625 C-7.953125 46.81640625 -7.953125 46.81640625 -9.953125 48.81640625 C-12.515625 49.06640625 -12.515625 49.06640625 -14.953125 48.81640625 C-15.953125 46.81640625 -15.953125 46.81640625 -15.390625 43.31640625 C-15.57625 42.16140625 -15.761875 41.00640625 -15.953125 39.81640625 C-19.20423654 38.49653496 -22.47338824 38.12088322 -25.953125 37.81640625 C-24.94734362 22.22679489 -17.53625116 12.66308415 -6.08984375 2.56640625 C-2.65193842 -0.24928221 -2.65193842 -0.24928221 0 0 Z " fill="#A22917" transform="translate(47.953125,35.18359375)"/>
<path d="M0 0 C0.69867188 -0.00386719 1.39734375 -0.00773437 2.1171875 -0.01171875 C5.84152159 -0.0046917 9.42216662 0.02090298 13 1.125 C13 1.785 13 2.445 13 3.125 C14.98 3.125 16.96 3.125 19 3.125 C19 3.785 19 4.445 19 5.125 C20.98045559 5.78679847 20.98045559 5.78679847 23 6.125 C21.34167246 10.61994043 19.14447806 14.73200841 16.875 18.9375 C9.28045716 33.05591769 9.28045716 33.05591769 2.5234375 47.58203125 C2.02070312 48.42121094 1.51796875 49.26039062 1 50.125 C-0.32 50.125 -1.64 50.125 -3 50.125 C-4.457101 47.80674295 -5.57352801 45.66783723 -6.6875 43.1875 C-7.38194242 41.7190229 -8.07863709 40.2516092 -8.77734375 38.78515625 C-9.13812012 38.01961426 -9.49889648 37.25407227 -9.87060547 36.46533203 C-11.72247383 32.6278893 -13.73564796 28.87900065 -15.75 25.125 C-17.17545008 22.46287822 -18.59085841 19.79578425 -20 17.125 C-20.38091797 16.41988281 -20.76183594 15.71476562 -21.15429688 14.98828125 C-21.52103516 14.29089844 -21.88777344 13.59351563 -22.265625 12.875 C-22.59852539 12.25109375 -22.93142578 11.6271875 -23.27441406 10.984375 C-24 9.125 -24 9.125 -24 5.125 C-21.76953125 3.89453125 -21.76953125 3.89453125 -18.8125 2.9375 C-17.84957031 2.61394531 -16.88664062 2.29039063 -15.89453125 1.95703125 C-10.51795149 0.41153666 -5.58774451 -0.03092848 0 0 Z " fill="#9C2A30" transform="translate(77,26.875)"/>
<path d="M0 0 C2.18463208 1.64681943 4.25283053 3.35893502 6.30078125 5.171875 C6.88859375 5.666875 7.47640625 6.161875 8.08203125 6.671875 C18.57799507 16.21366029 28.71838514 33.68252124 29.44604492 48.03759766 C29.47073379 51.62411961 29.48644196 55.21026151 29.48828125 58.796875 C29.50052734 60.03050781 29.51277344 61.26414062 29.52539062 62.53515625 C29.54205033 72.98634618 28.56071128 81.80266994 23.67578125 91.109375 C23.32314209 91.79394775 22.97050293 92.47852051 22.60717773 93.18383789 C12.3400434 112.62595525 -2.38493869 124.73106077 -22.796875 132.296875 C-38.607107 137.0633514 -59.86634974 136.50779333 -74.69921875 129.171875 C-76.47232422 128.31722656 -76.47232422 128.31722656 -78.28125 127.4453125 C-95.18850016 118.78878218 -107.29839213 104.60104066 -114.69921875 87.171875 C-115.11429687 86.20765625 -115.529375 85.2434375 -115.95703125 84.25 C-120.97127762 70.1540067 -121.56734456 50.11040779 -116.0859375 36.0703125 C-115.62832031 35.11382812 -115.17070313 34.15734375 -114.69921875 33.171875 C-114.4254541 32.58051758 -114.15168945 31.98916016 -113.86962891 31.37988281 C-104.60809237 11.65205703 -89.71178934 -2.92351238 -69.31640625 -10.96875 C-45.28648211 -18.85917285 -20.54781775 -13.91661173 0 0 Z M-99.88671875 12.359375 C-114.98359236 30.15322603 -118.07458101 50.5394811 -116.69921875 73.171875 C-115.95928934 77.88008826 -114.64909347 81.83575133 -112.69921875 86.171875 C-112.43608887 86.79465332 -112.17295898 87.41743164 -111.90185547 88.05908203 C-103.64355477 107.42192288 -88.9785334 121.34116691 -69.421875 129.2421875 C-53.65677226 134.62539331 -33.11794576 134.81220677 -17.69921875 128.171875 C-16.64992188 127.72457031 -15.600625 127.27726563 -14.51953125 126.81640625 C2.01105056 119.12824289 16.4412544 105.42398791 22.87109375 88.1484375 C24.13330943 84.52331239 25.25504705 80.86560566 26.30078125 77.171875 C26.56906738 76.26308594 26.56906738 76.26308594 26.84277344 75.3359375 C29.59616765 62.32629664 28.93410124 45.29842987 23.30078125 33.171875 C22.66462891 31.66560547 22.66462891 31.66560547 22.015625 30.12890625 C13.48173562 11.37336663 -2.68882197 -2.11971488 -21.76171875 -9.265625 C-49.9591372 -18.95441439 -79.97624655 -8.51950538 -99.88671875 12.359375 Z " fill="#EDAF43" transform="translate(119.69921875,14.828125)"/>
<path d="M0 0 C0 0.99 0 1.98 0 3 C0.33 1.68 0.66 0.36 1 -1 C6.75 0.875 6.75 0.875 9 2 C9 3.32 9 4.64 9 6 C8.401875 6.103125 7.80375 6.20625 7.1875 6.3125 C6.465625 6.539375 5.74375 6.76625 5 7 C3.20728609 10.48797488 3.20728609 10.48797488 2 14 C2.61875 12.845 3.2375 11.69 3.875 10.5 C4.9296875 8.53125 4.9296875 8.53125 6 7 C6.66 7 7.32 7 8 7 C7.67 9.31 7.34 11.62 7 14 C7.45439453 13.22462891 7.45439453 13.22462891 7.91796875 12.43359375 C9.17600477 10.45557404 10.3675527 8.68539153 12 7 C14.8125 7.0625 14.8125 7.0625 17 8 C16.01 8.061875 16.01 8.061875 15 8.125 C14.34 8.41375 13.68 8.7025 13 9 C12.66659529 12.04195427 12.66659529 12.04195427 13 15 C13.45890625 14.4225 13.9178125 13.845 14.390625 13.25 C15.00421875 12.5075 15.6178125 11.765 16.25 11 C16.85328125 10.2575 17.4565625 9.515 18.078125 8.75 C20 7 20 7 24 7 C23.75 9.4375 23.75 9.4375 23 12 C20.9375 12.625 20.9375 12.625 19 13 C19 13.99 19 14.98 19 16 C21.43929746 14.07423885 23.80090595 12.19909405 26 10 C25.44299928 13.23060419 24.70784878 15.0658223 22 17 C19.5 17.1875 19.5 17.1875 17 17 C16.01 17 15.02 17 14 17 C7 17 7 17 4.625 16.9375 C2.14185754 16.99662244 0.29267793 17.05130568 -2 18 C-2.268125 18.65742187 -2.53625 19.31484375 -2.8125 19.9921875 C-4 22 -4 22 -6.20703125 22.6796875 C-15.98423578 23.41261138 -15.98423578 23.41261138 -19 21 C-19.25 17.5 -19.25 17.5 -19 14 C-19.33 13.34 -19.66 12.68 -20 12 C-19.34 11.01 -18.68 10.02 -18 9 C-17.175 8.896875 -16.35 8.79375 -15.5 8.6875 C-14.2625 8.3471875 -14.2625 8.3471875 -13 8 C-11.67079974 5.09575344 -11.67079974 5.09575344 -11 2 C-8.74490247 -2.51019507 -4.15738698 -0.70597137 0 0 Z M-39 5 C-38.34 5 -37.68 5 -37 5 C-36.28272222 6.64551962 -35.61674772 8.31422289 -35 10 C-34.67 10.33 -34.34 10.66 -34 11 C-33.71125 10.34 -33.4225 9.68 -33.125 9 C-32.75375 8.34 -32.3825 7.68 -32 7 C-31.34 7 -30.68 7 -30 7 C-30 8.65 -30 10.3 -30 12 C-29.731875 11.175 -29.46375 10.35 -29.1875 9.5 C-28.795625 8.675 -28.40375 7.85 -28 7 C-27.01 7 -26.02 7 -25 7 C-25.33 9.31 -25.66 11.62 -26 14 C-24.68 12.68 -23.36 11.36 -22 10 C-22.66 10 -23.32 10 -24 10 C-23.67 9.34 -23.34 8.68 -23 8 C-21.4375 9.1875 -21.4375 9.1875 -20 11 C-20.3125 13.6875 -20.3125 13.6875 -21 16 C-21.66 15.67 -22.32 15.34 -23 15 C-24.35335895 15.97272675 -25.68662604 16.9739266 -27 18 C-27.66 18 -28.32 18 -29 18 C-29.433125 19.2065625 -29.433125 19.2065625 -29.875 20.4375 C-30.24625 21.283125 -30.6175 22.12875 -31 23 C-33.125 23.8125 -33.125 23.8125 -35 24 C-35 22.68 -35 21.36 -35 20 C-34.01 19.67 -33.02 19.34 -32 19 C-32 18.34 -32 17.68 -32 17 C-32.66 17 -33.32 17 -34 17 C-34 16.34 -34 15.68 -34 15 C-34.99 15.66 -35.98 16.32 -37 17 C-38.67654729 16.72057545 -40.34608154 16.39171753 -42 16 C-42.33 16.33 -42.66 16.66 -43 17 C-44.66608987 17.04384447 -46.33380554 17.0396713 -48 17 C-48.99 17 -49.98 17 -51 17 C-52.66666667 17 -54.33333333 17 -56 17 C-56 16.34 -56 15.68 -56 15 C-56.66 14.67 -57.32 14.34 -58 14 C-54.67692308 8.21538462 -54.67692308 8.21538462 -51.25 7.125 C-50.5075 7.08375 -49.765 7.0425 -49 7 C-49.33 7.99 -49.66 8.98 -50 10 C-50.66 10 -51.32 10 -52 10 C-52 10.99 -52 11.98 -52 13 C-52.66 13 -53.32 13 -54 13 C-54 13.99 -54 14.98 -54 16 C-51.18631106 13.88973329 -49.02864657 12.03906351 -46.9375 9.1875 C-46.298125 8.465625 -45.65875 7.74375 -45 7 C-42.75 7.1875 -42.75 7.1875 -41 8 C-41.8125 9.9375 -41.8125 9.9375 -43 12 C-43.99 12.33 -44.98 12.66 -46 13 C-46 13.99 -46 14.98 -46 16 C-42.11746414 12.52615213 -40.49672469 9.95070473 -39 5 Z " fill="#6B0F0A" transform="translate(104,90)"/>
<path d="M0 0 C3.47541187 -0.25615586 5.83997116 2.19576468 8.375 4.375 C13.33126368 8.88961642 16.16667656 13.98930671 19 20 C19.495 20.99 19.495 20.99 20 22 C20 23.98 20 25.96 20 28 C14.39 28.66 8.78 29.32 3 30 C3 33.63 3 37.26 3 41 C2.01 41 1.02 41 0 41 C0 37.7 0 34.4 0 31 C-2.31 31 -4.62 31 -7 31 C-7 32.98 -7 34.96 -7 37 C-7.99 37 -8.98 37 -10 37 C-10 35.35 -10 33.7 -10 32 C-11.98 32 -13.96 32 -16 32 C-15.5153125 31.030625 -15.030625 30.06125 -14.53125 29.0625 C-14.21124023 28.42175537 -13.89123047 27.78101074 -13.56152344 27.12084961 C-12.84836642 25.69601175 -12.13283412 24.2723605 -11.41503906 22.84985352 C-9.49568706 19.03755108 -7.62147849 15.2131933 -5.828125 11.33984375 C-5.47943359 10.60185547 -5.13074219 9.86386719 -4.77148438 9.10351562 C-4.09676207 7.67279471 -3.43626424 6.23526863 -2.79101562 4.79101562 C-1.859375 2.83984375 -1.859375 2.83984375 0 0 Z " fill="#FAF0EF" transform="translate(99,46)"/>
<path d="M0 0 C0.87269531 -0.00773437 1.74539062 -0.01546875 2.64453125 -0.0234375 C7.85822552 -0.00775722 12.1903261 0.55580678 17.125 2.25 C16.52297829 6.1299382 15.34830272 9.09922841 13.5078125 12.55859375 C12.98316406 13.55310547 12.45851563 14.54761719 11.91796875 15.57226562 C11.36753906 16.60029297 10.81710938 17.62832031 10.25 18.6875 C9.16892277 20.72768019 8.08818359 22.76803954 7.0078125 24.80859375 C6.24839355 26.22954346 6.24839355 26.22954346 5.47363281 27.67919922 C4.38301291 29.75816874 3.3595671 31.8462177 2.3671875 33.97265625 C1.95726563 34.72417969 1.54734375 35.47570312 1.125 36.25 C0.465 36.25 -0.195 36.25 -0.875 36.25 C-2.15187316 34.12925513 -3.28451745 32.03878804 -4.38671875 29.828125 C-4.7192012 29.17173035 -5.05168365 28.51533569 -5.39424133 27.83905029 C-6.09675356 26.44553683 -6.79505429 25.04989362 -7.48950195 23.65234375 C-8.55464567 21.51575513 -9.64058344 19.39068138 -10.72851562 17.265625 C-11.40754767 15.91210857 -12.08532366 14.55796113 -12.76171875 13.203125 C-13.08871262 12.56755676 -13.41570648 11.93198853 -13.75260925 11.27716064 C-15.01659718 8.69561369 -15.91772945 6.79793564 -15.69116211 3.89257812 C-14.875 2.25 -14.875 2.25 -12.9296875 1.015625 C-8.5967188 -0.07038761 -4.44958573 -0.0390886 0 0 Z " fill="#FBF4F4" transform="translate(75.875,37.75)"/>
<path d="M0 0 C4.16507217 0.54005376 6.54445439 1.83065101 9.8125 4.4375 C10.60269531 5.05496094 11.39289063 5.67242187 12.20703125 6.30859375 C12.79871094 6.86675781 13.39039062 7.42492188 14 8 C14 8.66 14 9.32 14 10 C14.66 10 15.32 10 16 10 C22.19835188 16.65880087 26.74749015 25.00382595 27.5625 34.125 C27.2840625 36.043125 27.2840625 36.043125 27 38 C24.01058178 39.20625648 22.10957994 39.68093006 19 40 C17.66644171 40.20688848 16.33308551 40.41508674 15 40.625 C14.01 40.74875 13.02 40.8725 12 41 C12 40.34 12 39.68 12 39 C11.34 38.67 10.68 38.34 10 38 C12.31 38 14.62 38 17 38 C14.85915902 26.65354281 9.46129312 17.74004501 0 11 C-0.99 10.67 -1.98 10.34 -3 10 C-3.23460938 10.80695312 -3.46921875 11.61390625 -3.7109375 12.4453125 C-5.30000035 16.8272737 -7.40649114 20.78462429 -9.625 24.875 C-10.04523438 25.65875 -10.46546875 26.4425 -10.8984375 27.25 C-11.9281022 29.16892057 -12.96347567 31.08477603 -14 33 C-14.66 32.67 -15.32 32.34 -16 32 C-14.53535546 27.05394907 -12.41781701 22.7983685 -9.9375 18.3125 C-7.15217401 13.30290526 -7.15217401 13.30290526 -5 8 C-4.34 8 -3.68 8 -3 8 C-2.835 7.175 -2.67 6.35 -2.5 5.5 C-2.335 4.675 -2.17 3.85 -2 3 C-1.34 3 -0.68 3 0 3 C0 2.01 0 1.02 0 0 Z " fill="#9D3922" transform="translate(102,36)"/>
<path d="M0 0 C1.70166016 2.50683594 1.70166016 2.50683594 3.5390625 5.984375 C4.02854874 6.90237885 4.02854874 6.90237885 4.52792358 7.83892822 C5.21745279 9.13744622 5.9013557 10.43896492 6.58007812 11.74316406 C7.61664513 13.73395397 8.66987861 15.71514017 9.7265625 17.6953125 C15.30236037 28.2385116 15.30236037 28.2385116 16 32 C10.97745369 32.2954439 8.10457614 31.98514628 4 29 C4.66 28.95875 5.32 28.9175 6 28.875 C6.66 28.58625 7.32 28.2975 8 28 C8.41666667 25 8.41666667 25 8 22 C6.03177114 20.03177114 2.65191291 20.33751619 0 20 C-0.67084112 23.44579041 -0.67084112 23.44579041 -1 27 C-0.34 27.33 0.32 27.66 1 28 C0 29 0 29 -2.5 29.3125 C-3.325 29.209375 -4.15 29.10625 -5 29 C-5.875 27.0625 -5.875 27.0625 -6 25 C-5.67 24.67 -5.34 24.34 -5 24 C-4.95907063 21.66702567 -4.95758277 19.33294775 -5 17 C-6.99954746 16.95745644 -9.00041636 16.95919217 -11 17 C-12.38972965 18.18047883 -12.38972965 18.18047883 -12.375 21.5 C-12.25125 22.655 -12.1275 23.81 -12 25 C-9.53951544 25.90888062 -9.53951544 25.90888062 -7 26 C-7 26.66 -7 27.32 -7 28 C-9.64 28 -12.28 28 -15 28 C-15 30.64 -15 33.28 -15 36 C-15.99 36 -16.98 36 -18 36 C-18 33.36 -18 30.72 -18 28 C-18.66 28 -19.32 28 -20 28 C-19.51477189 17.0823676 -12.74525008 9.18463256 -5.26953125 1.80078125 C-3 0 -3 0 0 0 Z " fill="#FBF2F1" transform="translate(52,45)"/>
<path d="M0 0 C0.66 0 1.32 0 2 0 C2.71727778 1.64551962 3.38325228 3.31422289 4 5 C4.33 5.33 4.66 5.66 5 6 C5.28875 5.34 5.5775 4.68 5.875 4 C6.24625 3.34 6.6175 2.68 7 2 C7.66 2 8.32 2 9 2 C9 3.65 9 5.3 9 7 C9.268125 6.175 9.53625 5.35 9.8125 4.5 C10.204375 3.675 10.59625 2.85 11 2 C11.99 2 12.98 2 14 2 C13.67 4.31 13.34 6.62 13 9 C13.99 8.01 14.98 7.02 16 6 C15.25 8.375 15.25 8.375 14 11 C12.66666667 11.66666667 11.33333333 12.33333333 10 13 C9.67 13.845625 9.34 14.69125 9 15.5625 C8.67 16.366875 8.34 17.17125 8 18 C5.875 18.8125 5.875 18.8125 4 19 C4 17.68 4 16.36 4 15 C4.99 14.67 5.98 14.34 7 14 C7 13.34 7 12.68 7 12 C6.34 12 5.68 12 5 12 C5 11.34 5 10.68 5 10 C4.01 10.66 3.02 11.32 2 12 C0.32345271 11.72057545 -1.34608154 11.39171753 -3 11 C-3.33 11.33 -3.66 11.66 -4 12 C-5.66608987 12.04384447 -7.33380554 12.0396713 -9 12 C-9.99 12 -10.98 12 -12 12 C-13.66666667 12 -15.33333333 12 -17 12 C-17 11.34 -17 10.68 -17 10 C-17.66 9.67 -18.32 9.34 -19 9 C-15.67692308 3.21538462 -15.67692308 3.21538462 -12.25 2.125 C-11.5075 2.08375 -10.765 2.0425 -10 2 C-10.33 2.99 -10.66 3.98 -11 5 C-11.66 5 -12.32 5 -13 5 C-13 5.99 -13 6.98 -13 8 C-13.66 8 -14.32 8 -15 8 C-15 8.99 -15 9.98 -15 11 C-12.18631106 8.88973329 -10.02864657 7.03906351 -7.9375 4.1875 C-7.298125 3.465625 -6.65875 2.74375 -6 2 C-3.75 2.1875 -3.75 2.1875 -2 3 C-2.8125 4.9375 -2.8125 4.9375 -4 7 C-4.99 7.33 -5.98 7.66 -7 8 C-7 8.99 -7 9.98 -7 11 C-3.11746414 7.52615213 -1.49672469 4.95070473 0 0 Z " fill="#E2A02F" transform="translate(65,95)"/>
<path d="M0 0 C0.33 0 0.66 0 1 0 C1.22978281 3.29052614 1.42974313 6.58225912 1.625 9.875 C1.68945312 10.7928125 1.75390625 11.710625 1.8203125 12.65625 C2.36317901 22.2921305 0.86239142 30.38818032 -3.625 38.9375 C-3.97763916 39.62207275 -4.33027832 40.30664551 -4.69360352 41.01196289 C-14.79885197 60.14752887 -29.6745078 72.97573607 -50.03515625 80.1328125 C-59.88291803 83.01318551 -69.90590549 81.76115562 -80 81 C-80 80.67 -80 80.34 -80 80 C-79.43716309 79.9906543 -78.87432617 79.98130859 -78.29443359 79.97167969 C-57.73544468 79.54432756 -39.93292693 76.04994466 -24 62 C-23.24976563 61.34386719 -22.49953125 60.68773437 -21.7265625 60.01171875 C-11.23399208 50.21745933 -5.83864601 38.55882258 -2 25 C-1.82275391 24.37649658 -1.64550781 23.75299316 -1.46289062 23.1105957 C-0.93871303 20.72055597 -0.7879314 18.46010714 -0.68359375 16.015625 C-0.64169922 15.08105469 -0.59980469 14.14648438 -0.55664062 13.18359375 C-0.51732422 12.21550781 -0.47800781 11.24742188 -0.4375 10.25 C-0.37272461 8.77466797 -0.37272461 8.77466797 -0.30664062 7.26953125 C-0.20077948 4.84648725 -0.09869829 2.4233446 0 0 Z " fill="#E9AA3F" transform="translate(147,67)"/>
<path d="M0 0 C9.10483126 2.56073379 15.5119743 11.14879555 20 19 C24 28.00294985 24 28.00294985 24 33 C21.03 33.495 21.03 33.495 18 34 C17.79375 32.72125 17.5875 31.4425 17.375 30.125 C15.24614931 20.70779241 9.3619724 13.08033348 2 7 C-0.13519023 5.80088728 -0.13519023 5.80088728 -2 5 C-1.34 3.35 -0.68 1.7 0 0 Z " fill="#F8BD4D" transform="translate(103,39)"/>
<path d="M0 0 C3 1 3 1 3.94921875 2.84765625 C3.96597656 3.55792969 3.98273437 4.26820312 4 5 C2.26953125 6.74609375 2.26953125 6.74609375 -0.1875 8.4375 C-5.8910229 12.40877362 -9.10910463 16.79572759 -12.1875 23 C-12.69667969 24.010625 -13.20585938 25.02125 -13.73046875 26.0625 C-15.09528687 28.91760126 -15.09528687 28.91760126 -15.51953125 31.84375 C-15.67808594 32.5553125 -15.83664063 33.266875 -16 34 C-18.5 34.5 -18.5 34.5 -21 34 C-22.68423375 28.94729874 -20.08733716 24.70709656 -18 20 C-13.77326537 11.63816725 -8.09227308 4.89659836 0 0 Z " fill="#F9C149" transform="translate(46,38)"/>
<path d="M0 0 C0.495 1.485 0.495 1.485 1 3 C0.67 3.66 0.34 4.32 0 5 C-1.94140625 4.7578125 -1.94140625 4.7578125 -4.5625 4.125 C-14.76773287 2.08661798 -25.43022361 1.49657582 -35 6 C-35.99 6 -36.98 6 -38 6 C-38.921875 3.64453125 -38.921875 3.64453125 -39 1 C-31.28457208 -6.39748446 -8.67720076 -5.09313958 0 0 Z " fill="#FCC24E" transform="translate(95,33)"/>
<path d="M0 0 C0.9375 1.9375 0.9375 1.9375 1 4 C1.33 4.33 1.66 4.66 2 5 C2.04080783 6.99958364 2.04254356 9.00045254 2 11 C1.34 11 0.68 11 0 11 C-0.12375 11.66 -0.2475 12.32 -0.375 13 C-0.58125 13.66 -0.7875 14.32 -1 15 C-2.32 15 -3.64 15 -5 15 C-4.79375 15.78375 -4.5875 16.5675 -4.375 17.375 C-4.25125 18.24125 -4.1275 19.1075 -4 20 C-4.66 20.66 -5.32 21.32 -6 22 C-7.36907416 19.42362412 -8.72028455 16.84031896 -10.0625 14.25 C-10.45244141 13.52039062 -10.84238281 12.79078125 -11.24414062 12.0390625 C-11.60830078 11.33007812 -11.97246094 10.62109375 -12.34765625 9.890625 C-12.68804932 9.24125977 -13.02844238 8.59189453 -13.37915039 7.92285156 C-14.14960712 5.53664741 -13.9221429 4.3110457 -13 2 C-8.83519633 -0.52412344 -4.71492984 -0.47149298 0 0 Z " fill="#F9ECEB" transform="translate(74,38)"/>
<path d="M0 0 C3.25 -0.125 3.25 -0.125 6 1 C6 2.32 6 3.64 6 5 C5.401875 5.103125 4.80375 5.20625 4.1875 5.3125 C3.465625 5.539375 2.74375 5.76625 2 6 C0.20728609 9.48797488 0.20728609 9.48797488 -1 13 C-0.071875 11.2675 -0.071875 11.2675 0.875 9.5 C1.9296875 7.53125 1.9296875 7.53125 3 6 C3.66 6 4.32 6 5 6 C4.67 8.31 4.34 10.62 4 13 C4.30292969 12.48308594 4.60585937 11.96617188 4.91796875 11.43359375 C6.17600477 9.45557404 7.3675527 7.68539153 9 6 C11.8125 6.0625 11.8125 6.0625 14 7 C13.01 7.061875 13.01 7.061875 12 7.125 C11.34 7.41375 10.68 7.7025 10 8 C9.66659529 11.04195427 9.66659529 11.04195427 10 14 C10.45890625 13.4225 10.9178125 12.845 11.390625 12.25 C12.00421875 11.5075 12.6178125 10.765 13.25 10 C13.85328125 9.2575 14.4565625 8.515 15.078125 7.75 C17 6 17 6 21 6 C20.75 8.4375 20.75 8.4375 20 11 C17.9375 11.625 17.9375 11.625 16 12 C16 12.99 16 13.98 16 15 C18.43929746 13.07423885 20.80090595 11.19909405 23 9 C22.44299928 12.23060419 21.70784878 14.0658223 19 16 C16.5 16.1875 16.5 16.1875 14 16 C13.01 16 12.02 16 11 16 C6 16 1 16 -4 16 C-4.60005759 10.29945294 -3.15977743 4.77796648 0 0 Z " fill="#E2A239" transform="translate(107,91)"/>
<path d="M0 0 C0.87785156 -0.00515625 1.75570312 -0.0103125 2.66015625 -0.015625 C4.9375 0.25 4.9375 0.25 6.9375 2.25 C7.5975 2.25 8.2575 2.25 8.9375 2.25 C7.35424857 9.69128171 3.18999699 17.66483554 -3.0625 22.25 C-5.28094626 22.05984746 -6.47772155 21.83477845 -8.0625 20.25 C-7.67525202 15.31258822 -6.77955383 11.42261839 -4.0625 7.25 C-1.375 5.875 -1.375 5.875 0.9375 5.25 C0.43146008 7.41874252 -0.06233813 9.24967627 -1.0625 11.25 C-0.0725 10.92 0.9175 10.59 1.9375 10.25 C2.18755386 7.20817107 2.18755386 7.20817107 1.9375 4.25 C0.2978125 4.311875 0.2978125 4.311875 -1.375 4.375 C-5.0625 4.25 -5.0625 4.25 -8.0625 2.25 C-4.81167327 0.08278218 -3.77017847 -0.02221018 0 0 Z " fill="#711A0A" transform="translate(33.0625,88.75)"/>
<path d="M0 0 C0.66 0.66 1.32 1.32 2 2 C0.625 5.125 0.625 5.125 -1 8 C0.2375 8.0928125 0.2375 8.0928125 1.5 8.1875 C2.325 8.455625 3.15 8.72375 4 9 C4.3125 11.5625 4.3125 11.5625 4 14 C4.99 14 5.98 14 7 14 C7 12.02 7 10.04 7 8 C9.31 8 11.62 8 14 8 C14 11.3 14 14.6 14 18 C14.99 18 15.98 18 17 18 C17 14.37 17 10.74 17 7 C22.41538462 5.76923077 22.41538462 5.76923077 25.375 6.9375 C26.179375 7.4634375 26.179375 7.4634375 27 8 C24.36 8.33 21.72 8.66 19 9 C19.06960937 9.69867188 19.13921875 10.39734375 19.2109375 11.1171875 C19.3734964 13.84972514 19.44541129 16.29635349 19 19 C16.125 20.8125 16.125 20.8125 13 21 C10.5705484 17.3558226 10.83820425 15.28758728 11 11 C10.34 11 9.68 11 9 11 C8.855625 11.804375 8.71125 12.60875 8.5625 13.4375 C8.376875 14.283125 8.19125 15.12875 8 16 C5 17 5 17 2.8125 16.1875 C2.214375 15.795625 1.61625 15.40375 1 15 C1 14.34 1 13.68 1 13 C-1.31 13 -3.62 13 -6 13 C-5.58221009 7.2902045 -3.42453429 4.39042858 0 0 Z " fill="#9C282F" transform="translate(85,69)"/>
<path d="M0 0 C2.9375 0.1875 2.9375 0.1875 3.9375 1.1875 C4.09767882 5.35214926 3.91998196 9.13476192 2.9375 13.1875 C4.5875 12.8575 6.2375 12.5275 7.9375 12.1875 C7.751875 11.424375 7.56625 10.66125 7.375 9.875 C6.9375 7.1875 6.9375 7.1875 7.9375 4.1875 C11.375 3.875 11.375 3.875 14.9375 4.1875 C15.5975 4.8475 16.2575 5.5075 16.9375 6.1875 C16.75 9.25 16.75 9.25 15.9375 12.1875 C14.9475 12.5175 13.9575 12.8475 12.9375 13.1875 C13.2675 13.8475 13.5975 14.5075 13.9375 15.1875 C-0.84382118 14.22394647 -0.84382118 14.22394647 -7.0625 13.1875 C-7.0625 12.8575 -7.0625 12.5275 -7.0625 12.1875 C-4.4225 12.1875 -1.7825 12.1875 0.9375 12.1875 C0.9375 11.5275 0.9375 10.8675 0.9375 10.1875 C0.133125 10.125625 -0.67125 10.06375 -1.5 10 C-2.345625 9.731875 -3.19125 9.46375 -4.0625 9.1875 C-5 5.75 -5 5.75 -5.0625 2.1875 C-3.0625 0.1875 -3.0625 0.1875 0 0 Z " fill="#F7E0DE" transform="translate(44.0625,60.8125)"/>
<path d="M0 0 C3.81300782 3.2870757 5.22972246 6.39727838 7 11 C-0.71247519 11.20382903 -8.06353914 10.63974364 -15.6875 9.5 C-17.18700195 9.28537109 -17.18700195 9.28537109 -18.71679688 9.06640625 C-21.14561017 8.71777276 -23.57318549 8.36223988 -26 8 C-25.95875 8.78375 -25.9175 9.5675 -25.875 10.375 C-26 13 -26 13 -28 15 C-30.5625 15.25 -30.5625 15.25 -33 15 C-34.4783226 12.04335481 -34.06032783 9.25770263 -34 6 C-36.64 5.67 -39.28 5.34 -42 5 C-42 4.67 -42 4.34 -42 4 C-40.865625 4.04125 -39.73125 4.0825 -38.5625 4.125 C-36.7990625 4.063125 -36.7990625 4.063125 -35 4 C-34.67 3.34 -34.34 2.68 -34 2 C-34 2.66 -34 3.32 -34 4 C-33.34 4 -32.68 4 -32 4 C-32 6.64 -32 9.28 -32 12 C-31.01 12 -30.02 12 -29 12 C-29 9.69 -29 7.38 -29 5 C-18.57273982 5.52067791 -8.33072801 6.471171 2 8 C1.484375 6.865625 0.96875 5.73125 0.4375 4.5625 C-0.036875 3.386875 -0.51125 2.21125 -1 1 C-0.67 0.67 -0.34 0.34 0 0 Z " fill="#99262A" transform="translate(66,69)"/>
<path d="M0 0 C0.66 0 1.32 0 2 0 C1.57298679 5.97818489 0.57272995 11.05314314 -3 16 C-5.4375 17.25 -5.4375 17.25 -8 18 C-8.825 18.70125 -9.65 19.4025 -10.5 20.125 C-13 22 -13 22 -15.625 22.4375 C-18 22 -18 22 -19.8125 20.875 C-21.64725698 17.9780153 -21.50466203 16.40646872 -21 13 C-19.02890437 8.58202705 -16.80374665 4.10331249 -13 1 C-9.875 0.75 -9.875 0.75 -7 1 C-6 2 -6 2 -5.6875 5 C-5.8421875 6.485 -5.8421875 6.485 -6 8 C-8 8.875 -8 8.875 -10 9 C-9.34 7.02 -8.68 5.04 -8 3 C-10.49004504 3.56076801 -10.49004504 3.56076801 -13 5 C-14.938548 9.1678782 -15.45523286 13.46027386 -16 18 C-14.15418992 18.74589318 -14.15418992 18.74589318 -12 19 C-6.87101446 14.20551351 -4.19200793 8.72173781 -1.296875 2.37890625 C-0.86890625 1.59386719 -0.4409375 0.80882813 0 0 Z " fill="#E5A436" transform="translate(42,91)"/>
<path d="M0 0 C0.74056641 0.00451172 1.48113281 0.00902344 2.24414062 0.01367188 C4.05862899 0.02537825 5.87307534 0.04331102 7.6875 0.0625 C4.14030934 2.42729377 1.17847933 2.60550474 -2.9375 3 C-9.05455253 3.69154685 -14.70440358 4.35859637 -20.3125 7.0625 C-20.60442273 9.63334862 -20.60442273 9.63334862 -20.3125 12.0625 C-19.7040625 11.77375 -19.095625 11.485 -18.46875 11.1875 C-12.44196092 8.63497757 -7.16775122 7.67587623 -0.6875 7.6875 C0.37887695 7.68556641 0.37887695 7.68556641 1.46679688 7.68359375 C3.21120994 7.72088927 4.95215991 7.88094374 6.6875 8.0625 C7.0175 8.7225 7.3475 9.3825 7.6875 10.0625 C6.6253125 10.09988281 5.563125 10.13726562 4.46875 10.17578125 C-6.27191521 10.54653426 -6.27191521 10.54653426 -16.3125 14.0625 C-17.3025 15.5475 -17.3025 15.5475 -18.3125 17.0625 C-18.9725 17.0625 -19.6325 17.0625 -20.3125 17.0625 C-21.3828125 15.453125 -21.3828125 15.453125 -22.4375 13.3125 C-22.79070313 12.61640625 -23.14390625 11.9203125 -23.5078125 11.203125 C-24.3125 9.0625 -24.3125 9.0625 -24.3125 5.0625 C-22.08203125 3.83203125 -22.08203125 3.83203125 -19.125 2.875 C-18.16207031 2.55144531 -17.19914062 2.22789063 -16.20703125 1.89453125 C-10.71355388 0.31543452 -5.70882026 -0.06632231 0 0 Z " fill="#9E2A18" transform="translate(77.3125,26.9375)"/>
<path d="M0 0 C2.625 0.125 2.625 0.125 5 1 C5 1.66 5 2.32 5 3 C6.32 2.67 7.64 2.34 9 2 C7.38333782 7.584833 5.05528903 13.04494792 2 18 C1.34 18 0.68 18 0 18 C-1.54296875 15.48046875 -1.54296875 15.48046875 -3.1875 12.1875 C-3.73792969 11.10855469 -4.28835937 10.02960938 -4.85546875 8.91796875 C-6 6 -6 6 -5 3 C-4.01 3.33 -3.02 3.66 -2 4 C-1.773125 3.319375 -1.54625 2.63875 -1.3125 1.9375 C-0.879375 1.298125 -0.44625 0.65875 0 0 Z " fill="#FBF1F1" transform="translate(75,56)"/>
<path d="M0 0 C4.16507217 0.54005376 6.54445439 1.83065101 9.8125 4.4375 C10.60269531 5.05496094 11.39289063 5.67242187 12.20703125 6.30859375 C12.79871094 6.86675781 13.39039062 7.42492188 14 8 C14 8.66 14 9.32 14 10 C14.66 10 15.32 10 16 10 C23.68485079 18.25572542 27.18481737 26.91095773 27 38 C25.68 37.34 24.36 36.68 23 36 C23.66 36 24.32 36 25 36 C21.47114862 23.44079601 15.98862151 12.59657014 5 5 C2.96319261 4.0471207 2.96319261 4.0471207 1 4 C-1.2889924 6.360962 -1.2889924 6.360962 -3 9 C-2.67 7.02 -2.34 5.04 -2 3 C-1.34 3 -0.68 3 0 3 C0 2.01 0 1.02 0 0 Z " fill="#A43115" transform="translate(102,36)"/>
<path d="M0 0 C2.625 0.25 2.625 0.25 4.4375 1.5 C5.625 3.25 5.625 3.25 5.625 7.25 C4.965 7.25 4.305 7.25 3.625 7.25 C3.28157551 5.91923011 2.94880126 4.58568021 2.625 3.25 C1.965 2.92 1.305 2.59 0.625 2.25 C0.955 3.219375 1.285 4.18875 1.625 5.1875 C2.84330569 9.52219631 3.3388914 13.77925511 2.625 18.25 C0.44080958 21.02224169 -0.89683659 21.19022957 -4.375 21.625 C-7.72249528 21.20656309 -9.12548621 20.75907308 -11.375 18.25 C-11.75 15.6875 -11.75 15.6875 -11.375 13.25 C-9.375 11.25 -9.375 11.25 -6.3125 10.875 C-5.343125 10.99875 -4.37375 11.1225 -3.375 11.25 C-2.5 13.25 -2.5 13.25 -2.375 15.25 C-3.365 15.25 -4.355 15.25 -5.375 15.25 C-5.375 14.26 -5.375 13.27 -5.375 12.25 C-6.365 12.58 -7.355 12.91 -8.375 13.25 C-9.1987956 15.21128755 -9.1987956 15.21128755 -9.375 17.25 C-8.24965895 18.60618499 -8.24965895 18.60618499 -5.3125 18.3125 C-3.8584375 18.2815625 -3.8584375 18.2815625 -2.375 18.25 C-2.28010768 13.69516846 -2.29907289 9.26809955 -2.9375 4.75 C-3.081875 3.595 -3.22625 2.44 -3.375 1.25 C-2.375 0.25 -2.375 0.25 0 0 Z " fill="#EFB71B" transform="translate(97.375,91.75)"/>
<path d="M0 0 C0.66 0 1.32 0 2 0 C1.80664062 0.556875 1.61328125 1.11375 1.4140625 1.6875 C1.15367187 2.450625 0.89328125 3.21375 0.625 4 C0.36976563 4.7425 0.11453125 5.485 -0.1484375 6.25 C-2.67779992 14.41821627 -3.38565757 21.56401005 -3.375 30.125 C-3.37483887 31.32535889 -3.37467773 32.52571777 -3.37451172 33.76245117 C-3.26169556 42.51995364 -2.24396151 49.81906058 1 58 C1.67433523 59.99742746 2.34310592 61.99676896 3 64 C2.01 64 1.02 64 0 64 C-0.495 62.515 -0.495 62.515 -1 61 C-1.33 61.66 -1.66 62.32 -2 63 C-4.02765677 61.34250719 -4.91914749 60.45197147 -5.38768005 57.83283997 C-5.39308304 56.9931517 -5.39848602 56.15346344 -5.40405273 55.28833008 C-5.41673691 54.33336136 -5.42942108 53.37839264 -5.44248962 52.39448547 C-5.43955399 51.36325058 -5.43661835 50.33201569 -5.43359375 49.26953125 C-5.4388356 48.20514328 -5.44407745 47.14075531 -5.44947815 46.04411316 C-5.45590661 43.78877637 -5.45455076 41.53340609 -5.44604492 39.27807617 C-5.43757513 35.84297022 -5.46622132 32.40954925 -5.49804688 28.97460938 C-5.49966007 26.7812505 -5.49907909 24.58788869 -5.49609375 22.39453125 C-5.50732773 21.37341751 -5.51856171 20.35230377 -5.53013611 19.30024719 C-5.475403 13.63653066 -4.8433518 9.56103544 -1.95521545 4.64237976 C-0.83516123 2.84481616 -0.83516123 2.84481616 0 0 Z " fill="#701A08" transform="translate(5,44)"/>
<path d="M0 0 C0 0.66 0 1.32 0 2 C1.98 2 3.96 2 6 2 C6 2.66 6 3.32 6 4 C7.98045559 4.66179847 7.98045559 4.66179847 10 5 C8.125 9.75 8.125 9.75 7 12 C6.01 12 5.02 12 4 12 C3.67 12.66 3.34 13.32 3 14 C3 13.34 3 12.68 3 12 C-2.31306785 11.16035183 -7.5678861 10.71817391 -12.9375 10.4375 C-13.71673828 10.39431641 -14.49597656 10.35113281 -15.29882812 10.30664062 C-17.19907117 10.20171923 -19.09951669 10.1004755 -21 10 C-21 9.67 -21 9.34 -21 9 C-17.97961078 8.77671448 -14.95968289 8.57098533 -11.9375 8.375 C-11.08994141 8.31054688 -10.24238281 8.24609375 -9.36914062 8.1796875 C-4.06983265 7.85231712 -0.01133209 8.21849524 5 10 C5 8.68 5 7.36 5 6 C-1.60394012 2.13900567 -10.57838585 2.3373461 -18 2 C-18 1.67 -18 1.34 -18 1 C-11.96445452 0.30739642 -6.07593562 -0.11251733 0 0 Z " fill="#AB361E" transform="translate(90,28)"/>
<path d="M0 0 C2 3 2 3 2 6 C1.34 6 0.68 6 0 6 C-0.1134375 6.64839844 -0.226875 7.29679687 -0.34375 7.96484375 C-1.27383443 12.26648423 -3.37758072 15.73491725 -5.5 19.5625 C-6.32698271 21.06156617 -7.1500474 22.56280197 -7.96875 24.06640625 C-8.33419922 24.72584229 -8.69964844 25.38527832 -9.07617188 26.06469727 C-10.0752872 27.98242938 -10.0752872 27.98242938 -10.50585938 30.13647461 C-11.21678597 32.81755302 -12.6867034 33.59800206 -15 35 C-15.66 35 -16.32 35 -17 35 C-15.29650753 30.57264901 -13.3289941 26.2908334 -11.3125 22 C-10.96380859 21.25758057 -10.61511719 20.51516113 -10.25585938 19.75024414 C-7.07070745 13.03363422 -3.61455258 6.49489917 0 0 Z " fill="#7E0D13" transform="translate(97,38)"/>
<path d="M0 0 C0 0.99 0 1.98 0 3 C0.33 1.68 0.66 0.36 1 -1 C2.65 -0.67 4.3 -0.34 6 0 C5.01 0.33 4.02 0.66 3 1 C2.60235737 2.98821313 2.27571139 4.99124558 2 7 C1.33333333 8.33333333 0.66666667 9.66666667 0 11 C-0.80946422 14.10197397 -0.80946422 14.10197397 -1 17 C-0.34 17.33 0.32 17.66 1 18 C0.01 18 -0.98 18 -2 18 C-3.22527948 19.95021083 -3.22527948 19.95021083 -4 22 C-4.66 21.67 -5.32 21.34 -6 21 C-5.67 20.67 -5.34 20.34 -5 20 C-4.60553227 14.59347171 -5.09345323 9.32596226 -6 4 C-5.01 4.33 -4.02 4.66 -3 5 C-3 6.32 -3 7.64 -3 9 C-2.34 9 -1.68 9 -1 9 C-2.08784968 5.75016865 -2.08784968 5.75016865 -4 3 C-6.5 2.5 -6.5 2.5 -9 3 C-9.82704005 5.46823091 -9.82704005 5.46823091 -10 8 C-10.33 8 -10.66 8 -11 8 C-11.125 2.25 -11.125 2.25 -10 0 C-6.30581799 -1.231394 -3.7943739 -0.64432764 0 0 Z " fill="#741B04" transform="translate(104,90)"/>
<path d="M0 0 C1.32 0 2.64 0 4 0 C3.67 0.99 3.34 1.98 3 3 C2.34 3 1.68 3 1 3 C1 3.99 1 4.98 1 6 C0.34 6 -0.32 6 -1 6 C-1 6.99 -1 7.98 -1 9 C1.81368894 6.88973329 3.97135343 5.03906351 6.0625 2.1875 C6.701875 1.465625 7.34125 0.74375 8 0 C10.25 0.1875 10.25 0.1875 12 1 C11.1875 2.9375 11.1875 2.9375 10 5 C9.01 5.33 8.02 5.66 7 6 C7 6.99 7 7.98 7 9 C8.98 7.35 10.96 5.7 13 4 C13.33 4.99 13.66 5.98 14 7 C13.67 7.66 13.34 8.32 13 9 C13.99 9.33 14.98 9.66 16 10 C15.195625 9.814375 14.39125 9.62875 13.5625 9.4375 C12.2940625 9.2209375 12.2940625 9.2209375 11 9 C10.67 9.33 10.34 9.66 10 10 C8.33391013 10.04384447 6.66619446 10.0396713 5 10 C4.01 10 3.02 10 2 10 C0.33333333 10 -1.33333333 10 -3 10 C-3 9.34 -3 8.68 -3 8 C-3.66 7.67 -4.32 7.34 -5 7 C-1.125 1.125 -1.125 1.125 0 0 Z " fill="#DC9C2E" transform="translate(51,97)"/>
<path d="M0 0 C0 0.66 0 1.32 0 2 C-0.99 2 -1.98 2 -3 2 C-3 2.66 -3 3.32 -3 4 C-9.23076923 7 -9.23076923 7 -12 7 C-12 7.66 -12 8.32 -12 9 C-17.47819047 10.74081226 -22.47452419 11.29857887 -28.19140625 11.265625 C-28.94034653 11.26753845 -29.6892868 11.2694519 -30.46092224 11.27142334 C-32.03148742 11.27277416 -33.60206419 11.26915552 -35.17260742 11.26074219 C-37.55999055 11.25001128 -39.94662398 11.26068267 -42.33398438 11.2734375 C-43.86979331 11.272116 -45.40560178 11.26955381 -46.94140625 11.265625 C-47.99794151 11.27169769 -47.99794151 11.27169769 -49.07582092 11.27789307 C-53.77208098 11.23399066 -57.58400608 10.44932971 -62 9 C-61.67 8.34 -61.34 7.68 -61 7 C-60.11183594 7.28359375 -59.22367188 7.5671875 -58.30859375 7.859375 C-52.38930922 9.73736275 -46.20802128 9.28830974 -40.0625 9.25 C-38.2072168 9.26160156 -38.2072168 9.26160156 -36.31445312 9.2734375 C-27.02723945 9.25358242 -19.86550506 7.87649544 -11.1875 4.5 C-10.08792969 4.0771875 -8.98835938 3.654375 -7.85546875 3.21875 C-0.31410256 0 -0.31410256 0 0 0 Z " fill="#823703" transform="translate(114,139)"/>
<path d="M0 0 C2 2 2 2 2.3125 5.0625 C2.539375 6.031875 2.76625 7.00125 3 8 C5.51176074 8.81931089 5.51176074 8.81931089 8 9 C8 9.66 8 10.32 8 11 C5.36 11 2.72 11 0 11 C0 13.64 0 16.28 0 19 C-0.99 19 -1.98 19 -3 19 C-3 16.36 -3 13.72 -3 11 C-3.66 11 -4.32 11 -5 11 C-4.6875 7.5625 -4.6875 7.5625 -4 4 C-3.01 3.67 -2.02 3.34 -1 3 C-0.67 2.01 -0.34 1.02 0 0 Z " fill="#F9E7E6" transform="translate(37,62)"/>
<path d="M0 0 C5.21438043 -0.0988364 10.42821643 -0.17145206 15.64331055 -0.21972656 C17.41749569 -0.23984903 19.19161446 -0.2671503 20.96557617 -0.30175781 C23.51497767 -0.35024992 26.06350295 -0.37296153 28.61328125 -0.390625 C29.40712723 -0.41127014 30.20097321 -0.43191528 31.01887512 -0.45318604 C33.26293945 -0.45410156 33.26293945 -0.45410156 37 0 C39.02416992 2.02441406 39.02416992 2.02441406 40 4 C38.68 4 37.36 4 36 4 C36.66 4.12375 37.32 4.2475 38 4.375 C38.66 4.58125 39.32 4.7875 40 5 C40 5.66 40 6.32 40 7 C41.65 7 43.3 7 45 7 C43.359375 8.140625 43.359375 8.140625 41 9 C38.265625 8.171875 38.265625 8.171875 35.25 6.75 C26.76597022 2.79670864 19.24450539 1.68102501 10 1.375 C9.03449219 1.33632813 8.06898437 1.29765625 7.07421875 1.2578125 C4.7163256 1.16443059 2.35842244 1.07865671 0 1 C0 0.67 0 0.34 0 0 Z " fill="#7A2908" transform="translate(67,0)"/>
<path d="M0 0 C3.25 -0.125 3.25 -0.125 6 1 C6 2.32 6 3.64 6 5 C5.401875 5.103125 4.80375 5.20625 4.1875 5.3125 C3.465625 5.539375 2.74375 5.76625 2 6 C0.20728609 9.48797488 0.20728609 9.48797488 -1 13 C-0.071875 11.2675 -0.071875 11.2675 0.875 9.5 C1.9296875 7.53125 1.9296875 7.53125 3 6 C3.66 6 4.32 6 5 6 C4.68143549 8.00240549 4.34578768 10.00211562 4 12 C3.95875 12.78375 3.9175 13.5675 3.875 14.375 C3.58625 14.91125 3.2975 15.4475 3 16 C-0.5625 16.25 -0.5625 16.25 -4 16 C-4.60005759 10.29945294 -3.15977743 4.77796648 0 0 Z " fill="#E6A732" transform="translate(107,91)"/>
<path d="M0 0 C0.33 0 0.66 0 1 0 C1 1.65 1 3.3 1 5 C1.66 5 2.32 5 3 5 C2.74667861 6.83583498 2.47190292 8.66872264 2.1875 10.5 C2.03667969 11.5209375 1.88585937 12.541875 1.73046875 13.59375 C1.48941406 14.3878125 1.24835938 15.181875 1 16 C0.01 16 -0.98 16 -2 16 C-2 14.35 -2 12.7 -2 11 C-3.98 11 -5.96 11 -8 11 C-6.6875 7.5 -6.6875 7.5 -5 4 C-4.01 4 -3.02 4 -2 4 C-0.8499169 2.03327085 -0.8499169 2.03327085 0 0 Z " fill="#FBF7F7" transform="translate(91,67)"/>
<path d="M0 0 C0 0.33 0 0.66 0 1 C-10.395 1.99 -10.395 1.99 -21 3 C-18.36 3.33 -15.72 3.66 -13 4 C-17.62204909 6.50360992 -22.69950655 9 -28 9 C-28.921875 6.64453125 -28.921875 6.64453125 -29 4 C-22.19357533 -2.52594014 -8.61391541 -0.3183788 0 0 Z " fill="#F9BD4D" transform="translate(85,30)"/>
<path d="M0 0 C1 1 1 1 1.3125 4 C1.1578125 5.485 1.1578125 5.485 1 7 C-1 7.875 -1 7.875 -3 8 C-2.34 6.02 -1.68 4.04 -1 2 C-3.49004504 2.56076801 -3.49004504 2.56076801 -6 4 C-7.21678202 6.68972867 -7.84287103 9.30109033 -8.48828125 12.171875 C-8.94235783 14.12683066 -9.46628128 16.06526965 -10 18 C-10.66 18 -11.32 18 -12 18 C-12.24947828 11.88778223 -11.90282618 6.65036504 -8.25 1.5625 C-5.33386325 -0.46259497 -3.47744675 -0.38638297 0 0 Z " fill="#ECB034" transform="translate(35,92)"/>
<path d="M0 0 C3.42771135 3.9173844 8 9.52151811 8 15 C2.97745369 15.2954439 0.10457614 14.98514628 -4 12 C-3.01 11.938125 -3.01 11.938125 -2 11.875 C-1.34 11.58625 -0.68 11.2975 0 11 C0.66721536 8.08559301 0.66721536 8.08559301 0 5 C-1.88077873 3.08743288 -1.88077873 3.08743288 -4 2 C-2.68 2 -1.36 2 0 2 C0 1.34 0 0.68 0 0 Z " fill="#FAEDE7" transform="translate(60,62)"/>
<path d="M0 0 C0.33 0.99 0.66 1.98 1 3 C1.66 3.33 2.32 3.66 3 4 C2.67 4.66 2.34 5.32 2 6 C2.66 5.67 3.32 5.34 4 5 C5.99960012 4.960008 8.00047242 4.95653201 10 5 C9.13375 5.309375 9.13375 5.309375 8.25 5.625 C5.14095223 7.52497364 3.76748986 9.85779581 2 13 C2.33 13.66 2.66 14.32 3 15 C1.02 15.33 -0.96 15.66 -3 16 C-3.33266291 9.79029227 -2.45029331 5.71735105 0 0 Z " fill="#863A08" transform="translate(45,91)"/>
<path d="M0 0 C0.99 0.33 1.98 0.66 3 1 C2.57847656 1.86882813 2.15695313 2.73765625 1.72265625 3.6328125 C1.17480469 4.78523438 0.62695312 5.93765625 0.0625 7.125 C-0.48277344 8.26195312 -1.02804688 9.39890625 -1.58984375 10.5703125 C-2.9103119 13.78186661 -3.58784221 16.56709079 -4 20 C-2.35 20.33 -0.7 20.66 1 21 C0.95875 20.195625 0.9175 19.39125 0.875 18.5625 C0.936875 17.2940625 0.936875 17.2940625 1 16 C1.66 15.67 2.32 15.34 3 15 C2.67 17.31 2.34 19.62 2 22 C-0.97 22 -3.94 22 -7 22 C-6.47484509 13.86009895 -4.56221246 6.84331868 0 0 Z " fill="#A32C18" transform="translate(29,51)"/>
<path d="M0 0 C3.81300782 3.2870757 5.22972246 6.39727838 7 11 C-0.50092628 11.26115411 -7.70804004 10.93229887 -15 9 C-15 8.67 -15 8.34 -15 8 C-9.0885256 7.22686955 -3.8685408 6.85180723 2 8 C1.484375 6.865625 0.96875 5.73125 0.4375 4.5625 C-0.036875 3.386875 -0.51125 2.21125 -1 1 C-0.67 0.67 -0.34 0.34 0 0 Z " fill="#9F2227" transform="translate(66,69)"/>
<path d="M0 0 C2.9375 0.1875 2.9375 0.1875 3.9375 1.1875 C4.0625 4.6875 4.0625 4.6875 3.9375 8.1875 C2.9375 9.1875 2.9375 9.1875 -0.625 9.25 C-1.759375 9.229375 -2.89375 9.20875 -4.0625 9.1875 C-4.6875 5.8125 -4.6875 5.8125 -5.0625 2.1875 C-3.0625 0.1875 -3.0625 0.1875 0 0 Z " fill="#A32B2E" transform="translate(44.0625,60.8125)"/>
<path d="M0 0 C0.99 0.33 1.98 0.66 3 1 C2.33613281 1.60585938 1.67226563 2.21171875 0.98828125 2.8359375 C-4.24630525 7.80306338 -8.16456591 12.23354618 -11.0625 18.87109375 C-12 21 -12 21 -14 24 C-15.03456617 20.77215354 -15.1308233 19.32550611 -13.84765625 16.1328125 C-6.41714404 3.6131311 -6.41714404 3.6131311 0 0 Z " fill="#9C3A1E" transform="translate(46,45)"/>
<path d="M0 0 C1.32 0.66 2.64 1.32 4 2 C3.34 2 2.68 2 2 2 C1.31805691 3.99484287 0.65608948 5.99650529 0 8 C-1.44309895 11.01150112 -3.03311564 13.93996321 -4.625 16.875 C-5.04523438 17.65875 -5.46546875 18.4425 -5.8984375 19.25 C-6.9281022 21.16892057 -7.96347567 23.08477603 -9 25 C-9.66 24.67 -10.32 24.34 -11 24 C-9.53535546 19.05394907 -7.41781701 14.7983685 -4.9375 10.3125 C-2.15217401 5.30290526 -2.15217401 5.30290526 0 0 Z " fill="#9E2E35" transform="translate(97,44)"/>
<path d="M0 0 C1.93719378 -0.05406122 3.87481921 -0.09282025 5.8125 -0.125 C6.89144531 -0.14820313 7.97039063 -0.17140625 9.08203125 -0.1953125 C12 0 12 0 15 2 C14.01 2.33 13.02 2.66 12 3 C12 3.66 12 4.32 12 5 C12.845625 4.938125 13.69125 4.87625 14.5625 4.8125 C18.73619843 5.04015628 21.25432947 6.20207814 25 8 C18.74165952 10.35447275 11.17211508 6.35745787 5.37109375 3.875 C3.54507199 2.98648852 1.76528149 2.00378751 0 1 C0 0.67 0 0.34 0 0 Z " fill="#78210A" transform="translate(40,138)"/>
<path d="M0 0 C1.87060547 0.28833008 1.87060547 0.28833008 4 1 C5.5658311 3.56146333 6.86483966 5.98270717 8.125 8.6875 C8.47175781 9.39583984 8.81851563 10.10417969 9.17578125 10.83398438 C11.09385094 14.81342782 12.70640343 18.76580505 14 23 C13.34 23.33 12.68 23.66 12 24 C9.99321599 20.37871557 7.9957352 16.75238357 6 13.125 C5.42765625 12.09246094 4.8553125 11.05992188 4.265625 9.99609375 C3.72421875 9.00996094 3.1828125 8.02382813 2.625 7.0078125 C2.12226562 6.09660645 1.61953125 5.18540039 1.1015625 4.24658203 C0 2 0 2 0 0 Z " fill="#9C2E34" transform="translate(52,45)"/>
<path d="M0 0 C0.33 0 0.66 0 1 0 C1.05875981 4.12493872 1.09384938 8.24976768 1.125 12.375 C1.15013672 14.10943359 1.15013672 14.10943359 1.17578125 15.87890625 C1.2735922 33.19144493 1.2735922 33.19144493 -3.125 38.625 C-4.053125 39.305625 -4.053125 39.305625 -5 40 C-6.21788279 36.34635163 -5.64897183 35.60855401 -4.125 32.1875 C-0.93346918 24.98981686 -0.75818985 17.88464285 -0.4375 10.125 C-0.37272461 8.66320312 -0.37272461 8.66320312 -0.30664062 7.171875 C-0.20117726 4.78137198 -0.09905825 2.39077556 0 0 Z " fill="#863A04" transform="translate(149,67)"/>
<path d="M0 0 C2.11295256 3.16942884 2.25250929 3.99629953 2.1875 7.625 C2.17783203 8.81996094 2.17783203 8.81996094 2.16796875 10.0390625 C2 12 2 12 1 13 C-1.9375 13.3125 -1.9375 13.3125 -5 13 C-6.5 11.1875 -6.5 11.1875 -7 9 C-6.34 8.01 -5.68 7.02 -5 6 C-4.01 6 -3.02 6 -2 6 C-2 6.99 -2 7.98 -2 9 C-1.01 9 -0.02 9 1 9 C0.67 8.01 0.34 7.02 0 6 C-2.51948778 5.26259783 -2.51948778 5.26259783 -5 5 C-4.360625 4.9175 -3.72125 4.835 -3.0625 4.75 C-2.381875 4.5025 -1.70125 4.255 -1 4 C-0.18553891 1.99427359 -0.18553891 1.99427359 0 0 Z " fill="#762507" transform="translate(94,98)"/>
<path d="M0 0 C1.30582031 -0.01417969 2.61164063 -0.02835938 3.95703125 -0.04296875 C7.1875 0.1875 7.1875 0.1875 9.1875 2.1875 C6.63026771 3.46611615 4.82012898 3.30086609 1.9609375 3.28515625 C0.9296875 3.28193359 -0.1015625 3.27871094 -1.1640625 3.27539062 C-2.78441406 3.26282227 -2.78441406 3.26282227 -4.4375 3.25 C-6.06945312 3.24323242 -6.06945312 3.24323242 -7.734375 3.23632812 C-10.42713789 3.22451776 -13.11979188 3.20804778 -15.8125 3.1875 C-15.4825 2.5275 -15.1525 1.8675 -14.8125 1.1875 C-9.87724276 0.20295694 -5.02246506 0.02503721 0 0 Z " fill="#FCCF3F" transform="translate(78.8125,30.8125)"/>
<path d="M0 0 C0.33 0.66 0.66 1.32 1 2 C-0.3125 4.625 -0.3125 4.625 -2 7 C-2.66 7 -3.32 7 -4 7 C-4.0825 7.5775 -4.165 8.155 -4.25 8.75 C-5.39187132 12.17561395 -8.02834431 13.09814036 -11 15 C-11.474375 15.721875 -11.94875 16.44375 -12.4375 17.1875 C-14.83835734 19.97249451 -17.47366071 19.73386119 -21 20 C-20.27683594 19.42894531 -19.55367188 18.85789063 -18.80859375 18.26953125 C-11.92635417 12.70822222 -5.56743013 6.886032 0 0 Z " fill="#721E03" transform="translate(135,119)"/>
<path d="M0 0 C3 0.125 3 0.125 4 1.125 C4.04080783 3.12458364 4.04254356 5.12545254 4 7.125 C1.69 7.455 -0.62 7.785 -3 8.125 C-3.38063221 5.7989143 -3.71269945 3.46444736 -4 1.125 C-3 0.125 -3 0.125 0 0 Z " fill="#A0343A" transform="translate(72,41.875)"/>
<path d="M0 0 C0.66 0 1.32 0 2 0 C1.80664062 0.556875 1.61328125 1.11375 1.4140625 1.6875 C1.15367187 2.450625 0.89328125 3.21375 0.625 4 C0.36976563 4.7425 0.11453125 5.485 -0.1484375 6.25 C-2.43799392 13.64379687 -3.36940809 20.2789943 -3.625 28 C-3.66367187 28.96550781 -3.70234375 29.93101563 -3.7421875 30.92578125 C-3.83556941 33.2836744 -3.92134329 35.64157756 -4 38 C-4.33 38 -4.66 38 -5 38 C-5.116965 33.66689672 -5.1875089 29.3342042 -5.25 25 C-5.28351562 23.77925781 -5.31703125 22.55851562 -5.3515625 21.30078125 C-5.43100396 13.95244609 -4.87459483 9.27033667 -1 3 C-0.67 2.01 -0.34 1.02 0 0 Z " fill="#7A3002" transform="translate(5,44)"/>
<path d="M0 0 C0 0.33 0 0.66 0 1 C-0.99257812 1.03738281 -1.98515625 1.07476562 -3.0078125 1.11328125 C-11.41652535 1.49946997 -19.12911069 2.46048762 -27.3046875 4.57421875 C-28.19414063 4.71472656 -29.08359375 4.85523438 -30 5 C-30.66 4.34 -31.32 3.68 -32 3 C-21.02482309 -1.59105246 -11.62096126 -1.1289635 0 0 Z " fill="#E09E3C" transform="translate(80,2)"/>
<path d="M0 0 C1.7015625 0.2475 1.7015625 0.2475 3.4375 0.5 C6.83278957 1.31993361 6.83278957 1.31993361 9 0 C9 0.66 9 1.32 9 2 C11.31 1.34 13.62 0.68 16 0 C16 0.66 16 1.32 16 2 C16.66 2 17.32 2 18 2 C18 2.66 18 3.32 18 4 C15.1875 5.8125 15.1875 5.8125 12 7 C10.97702078 6.02351983 9.98095748 5.01868662 9 4 C6.28375955 3.70723157 3.74221542 3.86513695 1 4 C1 3.34 1 2.68 1 2 C0.34 1.67 -0.32 1.34 -1 1 C-0.67 0.67 -0.34 0.34 0 0 Z " fill="#772707" transform="translate(54,105)"/>
<path d="M0 0 C0.66 0 1.32 0 2 0 C2 0.99 2 1.98 2 3 C3.65 3 5.3 3 7 3 C6.443125 3.185625 5.88625 3.37125 5.3125 3.5625 C1.93245808 5.66360714 0.14859619 8.70665994 -2 12 C-3 10 -3 10 -2.0625 6.875 C-1.711875 5.92625 -1.36125 4.9775 -1 4 C-1.66 4 -2.32 4 -3 4 C-3.309375 4.94875 -3.61875 5.8975 -3.9375 6.875 C-5 10 -5 10 -8 12 C-6.94124926 8.59687262 -5.99097846 5.98646769 -4 3 C-2.68 3 -1.36 3 0 3 C0 2.01 0 1.02 0 0 Z " fill="#843B05" transform="translate(113,93)"/>
<path d="M0 0 C2.05078125 0.03255208 4.1015625 0.06510417 6.15234375 0.09765625 C3.35305529 1.96384856 1.52134845 2.67013884 -1.66015625 3.53515625 C-5.65640362 4.67860805 -9.15898115 6.16110182 -12.84765625 8.09765625 C-13.50765625 8.09765625 -14.16765625 8.09765625 -14.84765625 8.09765625 C-14.84765625 7.43765625 -14.84765625 6.77765625 -14.84765625 6.09765625 C-14.18765625 5.76765625 -13.52765625 5.43765625 -12.84765625 5.09765625 C-12.64140625 4.41703125 -12.43515625 3.73640625 -12.22265625 3.03515625 C-11.76890625 2.39578125 -11.31515625 1.75640625 -10.84765625 1.09765625 C-8.1368836 0.76942073 -5.58993685 0.96707146 -2.84765625 1.09765625 C-1.84765625 0.09765625 -1.84765625 0.09765625 0 0 Z " fill="#731C06" transform="translate(54.84765625,0.90234375)"/>
<path d="M0 0 C0.66 0 1.32 0 2 0 C3.08328221 1.60541823 4.09050517 3.26235997 5.0625 4.9375 C8.66470654 10.80438492 12.94825484 15.3606422 18 20 C17.01 20.33 16.02 20.66 15 21 C15 20.34 15 19.68 15 19 C14.01 18.67 13.02 18.34 12 18 C10.46484375 16.1875 10.46484375 16.1875 8.9375 14 C6.92046147 10.98371816 6.92046147 10.98371816 4 9 C4 8.01 4 7.02 4 6 C3.34 5.690625 2.68 5.38125 2 5.0625 C1.34 4.711875 0.68 4.36125 0 4 C0 2.68 0 1.36 0 0 Z " fill="#772306" transform="translate(9,112)"/>
<path d="M0 0 C1.33332095 2.6666419 0.67102033 4.16680303 0 7 C0.9075 6.814375 1.815 6.62875 2.75 6.4375 C5.65154356 6.0469076 7.33314578 5.87171552 10 7 C10 7.66 10 8.32 10 9 C9.01 9.33 8.02 9.66 7 10 C6.34 9.67 5.68 9.34 5 9 C4.67 9.66 4.34 10.32 4 11 C3.01 10.34 2.02 9.68 1 9 C0.01 9 -0.98 9 -2 9 C-2.99 8.34 -3.98 7.68 -5 7 C-4.34 7 -3.68 7 -3 7 C-2.64984951 5.33678518 -2.31802943 3.66965451 -2 2 C-1.34 1.34 -0.68 0.68 0 0 Z " fill="#762506" transform="translate(42,100)"/>
<path d="M0 0 C2.5625 0.1875 2.5625 0.1875 4.5625 2.1875 C4.5625 3.5075 4.5625 4.8275 4.5625 6.1875 C2.2364143 6.56813221 -0.09805264 6.90019945 -2.4375 7.1875 C-3.4375 6.1875 -3.4375 6.1875 -3.5625 3.6875 C-3.39599509 0.35740177 -3.31519894 0.2550153 0 0 Z " fill="#9F2E33" transform="translate(96.4375,64.8125)"/>
<path d="M0 0 C0.66 0 1.32 0 2 0 C4.59422656 6.32229341 4.22897807 12.69892123 4.125 19.4375 C4.11597656 20.55060547 4.10695312 21.66371094 4.09765625 22.81054688 C4.0742224 25.54059023 4.041414 28.2701801 4 31 C3.67 31 3.34 31 3 31 C2.95101562 29.87722656 2.90203125 28.75445312 2.8515625 27.59765625 C2.47604198 19.83053906 1.891845 12.56737998 0 5 C-0.125 1.9375 -0.125 1.9375 0 0 Z " fill="#EFB347" transform="translate(145,53)"/>
<path d="M0 0 C0.99 0.33 1.98 0.66 3 1 C3 2.32 3 3.64 3 5 C3.99 5 4.98 5 6 5 C5.67447917 7.05078125 5.34895833 9.1015625 5.0234375 11.15234375 C5.01570313 11.76207031 5.00796875 12.37179688 5 13 C5.66 13.33 6.32 13.66 7 14 C6.01 14 5.02 14 4 14 C2.77472052 15.95021083 2.77472052 15.95021083 2 18 C1.34 17.67 0.68 17.34 0 17 C0.33 16.67 0.66 16.34 1 16 C1.39446773 10.59347171 0.90654677 5.32596226 0 0 Z " fill="#853A09" transform="translate(98,94)"/>
<path d="M0 0 C0.66 0.66 1.32 1.32 2 2 C0.625 5.125 0.625 5.125 -1 8 C-0.175 8.0825 0.65 8.165 1.5 8.25 C2.7375 8.62125 2.7375 8.62125 4 9 C4 10.32 4 11.64 4 13 C3.34 13 2.68 13 2 13 C2 12.01 2 11.02 2 10 C1.01 10.66 0.02 11.32 -1 12 C-2.32 12 -3.64 12 -5 12 C-4.58525633 6.71201818 -3.64775386 3.88309282 0 0 Z " fill="#A23239" transform="translate(85,69)"/>
<path d="M0 0 C3.2857058 0.32857058 4.8710124 1.55166427 7 4 C6.01 4.495 6.01 4.495 5 5 C5.66 6.65 6.32 8.3 7 10 C5.68 10.33 4.36 10.66 3 11 C3 8.36 3 5.72 3 3 C0.03 5.475 0.03 5.475 -3 8 C-1.125 2.25 -1.125 2.25 0 0 Z " fill="#D9ABAE" transform="translate(99,46)"/>
<path d="M0 0 C3 1 3 1 4 3 C4.804375 3.45375 5.60875 3.9075 6.4375 4.375 C9.16141944 6.10236355 10.07517431 6.94807523 11 10 C10.70916904 11.34324467 10.38048032 12.67934728 10 14 C8.69979989 12.61211198 7.4101807 11.21430742 6.125 9.8125 C5.40570312 9.03519531 4.68640625 8.25789063 3.9453125 7.45703125 C2.0182908 5.02310224 0.98699889 2.92463354 0 0 Z " fill="#731E08" transform="translate(13,112)"/>
<path d="M0 0 C2.5 0.125 2.5 0.125 5 1 C5.8125 3.5625 5.8125 3.5625 6 6 C3.125 6.625 3.125 6.625 0 7 C-0.66 6.34 -1.32 5.68 -2 5 C-1.46428571 1.46428571 -1.46428571 1.46428571 0 0 Z " fill="#9B4244" transform="translate(55,65)"/>
<path d="M0 0 C0.33 0 0.66 0 1 0 C1.22978281 3.29052614 1.42974313 6.58225912 1.625 9.875 C1.68945312 10.7928125 1.75390625 11.710625 1.8203125 12.65625 C2.18224959 19.08063339 1.56534378 24.76067198 0 31 C-2.24181223 27.63728166 -2.00143015 26.90652394 -1.32861328 23.14013672 C-0.66485812 18.81734491 -0.61949496 14.42739542 -0.4375 10.0625 C-0.39431641 9.09248047 -0.35113281 8.12246094 -0.30664062 7.12304688 C-0.20137907 4.74881399 -0.09924293 2.37449079 0 0 Z " fill="#D18938" transform="translate(147,67)"/>
<path d="M0 0 C-0.66 1.32 -1.32 2.64 -2 4 C-2 3.34 -2 2.68 -2 2 C-7.31306785 1.16035183 -12.5678861 0.71817391 -17.9375 0.4375 C-18.71673828 0.39431641 -19.49597656 0.35113281 -20.29882812 0.30664062 C-22.19907117 0.20171923 -24.09951669 0.1004755 -26 0 C-26 -0.33 -26 -0.66 -26 -1 C-17.03241789 -1.8233264 -8.78167325 -2.55428477 0 0 Z " fill="#B35140" transform="translate(95,38)"/>
<path d="M0 0 C0.66 0.33 1.32 0.66 2 1 C0.92618483 2.77662117 -0.159458 4.54609689 -1.25 6.3125 C-1.85328125 7.29863281 -2.4565625 8.28476563 -3.078125 9.30078125 C-4.87840898 11.82922888 -6.41840585 13.326533 -9 15 C-9 13.68 -9 12.36 -9 11 C-8.01 11 -7.02 11 -6 11 C-6.309375 9.824375 -6.309375 9.824375 -6.625 8.625 C-6.74875 7.75875 -6.8725 6.8925 -7 6 C-6.34 5.34 -5.68 4.68 -5 4 C-4.01 4.33 -3.02 4.66 -2 5 C-1.34 3.35 -0.68 1.7 0 0 Z " fill="#741E06" transform="translate(137,109)"/>
<path d="M0 0 C0.66 0 1.32 0 2 0 C2.68132451 1.66072849 3.34742127 3.327767 4 5 C4.66 5.33 5.32 5.66 6 6 C6 6.66 6 7.32 6 8 C1.61538462 11 1.61538462 11 -1 11 C-1.02688151 9.35425434 -1.04634123 7.70838587 -1.0625 6.0625 C-1.07410156 5.14597656 -1.08570313 4.22945313 -1.09765625 3.28515625 C-1 1 -1 1 0 0 Z " fill="#E4A633" transform="translate(65,95)"/>
<path d="M0 0 C0.969375 0.12375 1.93875 0.2475 2.9375 0.375 C3.8125 2.375 3.8125 2.375 3.9375 4.375 C2.9475 4.375 1.9575 4.375 0.9375 4.375 C0.9375 3.385 0.9375 2.395 0.9375 1.375 C-0.0525 1.705 -1.0425 2.035 -2.0625 2.375 C-2.79573796 4.39008358 -2.79573796 4.39008358 -3.0625 6.375 C-2.19625 6.68244141 -2.19625 6.68244141 -1.3125 6.99609375 C-0.57 7.26550781 0.1725 7.53492187 0.9375 7.8125 C2.05125 8.21275391 2.05125 8.21275391 3.1875 8.62109375 C3.765 8.86988281 4.3425 9.11867188 4.9375 9.375 C4.9375 9.705 4.9375 10.035 4.9375 10.375 C1.68454886 10.59679212 -0.49047793 10.66101103 -3.4375 9.1875 C-5.0625 7.375 -5.0625 7.375 -5.4375 4.8125 C-4.85411875 1.0205219 -3.73990279 0.45794728 0 0 Z " fill="#E1934D" transform="translate(91.0625,102.625)"/>
<path d="M0 0 C0.89525391 0.19916016 0.89525391 0.19916016 1.80859375 0.40234375 C10.50160389 2.17194611 19.16109612 2.60623875 28 3 C28 3.33 28 3.66 28 4 C24.08358289 4.11618764 20.16760899 4.18724654 16.25 4.25 C14.58324219 4.30027344 14.58324219 4.30027344 12.8828125 4.3515625 C11.81289062 4.36445313 10.74296875 4.37734375 9.640625 4.390625 C8.16384277 4.4220459 8.16384277 4.4220459 6.65722656 4.45410156 C3.30359304 3.88098889 2.14077979 2.56715917 0 0 Z " fill="#F2B849" transform="translate(56,145)"/>
<path d="M0 0 C2.5 0.375 2.5 0.375 5 1 C5 1.66 5 2.32 5 3 C6.32 2.67 7.64 2.34 9 2 C8.34 3.98 7.68 5.96 7 8 C6.67 7.34 6.34 6.68 6 6 C4.989375 5.71125 3.97875 5.4225 2.9375 5.125 C1.968125 4.75375 0.99875 4.3825 0 4 C0 2.68 0 1.36 0 0 Z " fill="#F9E5E1" transform="translate(75,56)"/>
<path d="M0 0 C2.5 0.375 2.5 0.375 5 1 C5 1.66 5 2.32 5 3 C6.88316159 4.10836423 6.88316159 4.10836423 9 5 C9.66 5.33 10.32 5.66 11 6 C11 6.66 11 7.32 11 8 C11.61875 8.268125 12.2375 8.53625 12.875 8.8125 C15.68420602 10.38235042 16.05426407 12.00516955 17 15 C16.05125 14.175 15.1025 13.35 14.125 12.5 C10.16005196 9.0886792 6.06030497 5.85940404 1.94140625 2.63671875 C1.30074219 2.09660156 0.66007812 1.55648438 0 1 C0 0.67 0 0.34 0 0 Z " fill="#711D02" transform="translate(116,12)"/>
<path d="M0 0 C0 0.66 0 1.32 0 2 C-0.70125 2.226875 -1.4025 2.45375 -2.125 2.6875 C-5.70469702 4.32170951 -7.35740098 6.49774866 -9.765625 9.5390625 C-10.17296875 10.02117187 -10.5803125 10.50328125 -11 11 C-11.33 11 -11.66 11 -12 11 C-11.67 8.69 -11.34 6.38 -11 4 C-9.68 4 -8.36 4 -7 4 C-7 3.34 -7 2.68 -7 2 C-4.41023913 0.39256222 -3.1068598 0 0 0 Z " fill="#712102" transform="translate(128,95)"/>
<path d="M0 0 C0.99 0.33 1.98 0.66 3 1 C1.57808759 2.55605509 0.13698824 4.09459934 -1.3125 5.625 C-2.51326172 6.91277344 -2.51326172 6.91277344 -3.73828125 8.2265625 C-4.48464844 8.81179687 -5.23101562 9.39703125 -6 10 C-6.99 9.34 -7.98 8.68 -9 8 C-7.87811441 6.85111717 -6.75238316 5.70598863 -5.625 4.5625 C-4.99851562 3.92441406 -4.37203125 3.28632812 -3.7265625 2.62890625 C-2 1 -2 1 0 0 Z " fill="#9E4327" transform="translate(46,45)"/>
<path d="M0 0 C1.2065625 0.0309375 1.2065625 0.0309375 2.4375 0.0625 C-0.25628789 2.75628789 -2.78824981 3.19922837 -6.4375 4.25 C-7.67242187 4.61480469 -8.90734375 4.97960937 -10.1796875 5.35546875 C-13.25155505 5.99751035 -14.70607992 6.18927877 -17.5625 5.0625 C-12.79746378 2.82585035 -8.84060598 1.69587272 -3.5625 1.0625 C-2.5625 0.0625 -2.5625 0.0625 0 0 Z " fill="#742202" transform="translate(101.5625,140.9375)"/>
<path d="M0 0 C4.42679007 1.47559669 4.91432696 3.90057368 7 8 C7 8.66 7 9.32 7 10 C4.69 10 2.38 10 0 10 C0.33 9.34 0.66 8.68 1 8 C1.66 8 2.32 8 3 8 C2.505 7.05125 2.01 6.1025 1.5 5.125 C0 2 0 2 0 0 Z " fill="#A82E21" transform="translate(47,35)"/>
<path d="M0 0 C-1.11799986 1.33920838 -2.24461897 2.67122556 -3.375 4 C-4.00148438 4.7425 -4.62796875 5.485 -5.2734375 6.25 C-6.12808594 7.11625 -6.12808594 7.11625 -7 8 C-7.66 8 -8.32 8 -9 8 C-8.51566469 2.55122777 -8.51566469 2.55122777 -6.1875 0.0625 C-3.55447732 -1.21639673 -2.71057059 -0.823968 0 0 Z " fill="#8C430D" transform="translate(59,98)"/>
<path d="M0 0 C6.17398461 3.15267299 10.94783982 7.28006804 16 12 C15.01 12.33 14.02 12.66 13 13 C10.5 10.6875 10.5 10.6875 8 8 C7.01 7.34 6.02 6.68 5 6 C5 5.34 5 4.68 5 4 C3.7625 3.505 3.7625 3.505 2.5 3 C1.2625 2.505 1.2625 2.505 0 2 C0 1.34 0 0.68 0 0 Z " fill="#721D02" transform="translate(112,13)"/>
<path d="M0 0 C0.33 0.66 0.66 1.32 1 2 C4.54171978 2.16669318 4.54171978 2.16669318 8 2 C7.67 2.66 7.34 3.32 7 4 C4.05859375 4.6328125 4.05859375 4.6328125 0.4375 5.125 C-0.76003906 5.29257813 -1.95757812 5.46015625 -3.19140625 5.6328125 C-4.11824219 5.75398438 -5.04507813 5.87515625 -6 6 C-6 5.34 -6 4.68 -6 4 C-6.66 3.67 -7.32 3.34 -8 3 C-5.36 3 -2.72 3 0 3 C0 2.01 0 1.02 0 0 Z " fill="#9F2724" transform="translate(120,71)"/>
<path d="M0 0 C2 3 2 3 1.64453125 6.13671875 C1.36996094 7.30847656 1.09539063 8.48023438 0.8125 9.6875 C0.55082031 10.86699219 0.28914062 12.04648437 0.01953125 13.26171875 C-0.31691406 14.16535156 -0.65335937 15.06898437 -1 16 C-1.99 16 -2.98 16 -4 16 C-3.71515154 14.26969709 -3.42180062 12.54079286 -3.125 10.8125 C-2.96257813 9.84957031 -2.80015625 8.88664062 -2.6328125 7.89453125 C-2.01960483 5.08967396 -1.14333657 2.62775253 0 0 Z " fill="#E09D35" transform="translate(5,48)"/>
<path d="M0 0 C1.32 0 2.64 0 4 0 C3.67 0.99 3.34 1.98 3 3 C2.34 3 1.68 3 1 3 C1 3.99 1 4.98 1 6 C0.34 6 -0.32 6 -1 6 C-1 6.99 -1 7.98 -1 9 C-2.32 8.34 -3.64 7.68 -5 7 C-1.125 1.125 -1.125 1.125 0 0 Z " fill="#F3B63A" transform="translate(51,97)"/>
<path d="M0 0 C0.66 0 1.32 0 2 0 C1.50769231 7.38461538 1.50769231 7.38461538 -1.0625 10.5 C-1.701875 10.995 -2.34125 11.49 -3 12 C-2.09589041 2.95890411 -2.09589041 2.95890411 0 0 Z " fill="#F7BF30" transform="translate(42,91)"/>
<path d="M0 0 C0 2.69353553 -0.13519736 4.48421051 -1 7 C-2 8 -3 9 -4 10 C-4.515625 11.051875 -5.03125 12.10375 -5.5625 13.1875 C-6.2740625 14.5796875 -6.2740625 14.5796875 -7 16 C-7.66 16 -8.32 16 -9 16 C-7.51637716 9.73581469 -3.75837844 5.08486495 0 0 Z " fill="#752204" transform="translate(18,30)"/>
<path d="M0 0 C3.57944171 3.57944171 4.30333525 7.94120186 5.125 12.8125 C5.29257813 13.78832031 5.46015625 14.76414062 5.6328125 15.76953125 C5.75398437 16.50558594 5.87515625 17.24164063 6 18 C4 17 4 17 2.9296875 14.19921875 C2.58164063 13.04035156 2.23359375 11.88148437 1.875 10.6875 C1.52179687 9.53636719 1.16859375 8.38523437 0.8046875 7.19921875 C0 4 0 4 0 0 Z " fill="#7A2803" transform="translate(3,84)"/>
<path d="M0 0 C0.66 0 1.32 0 2 0 C5.4887612 4.29385993 5.26854022 7.71870895 5 13 C3.68 12.34 2.36 11.68 1 11 C1.66 11 2.32 11 3 11 C2.01 7.37 1.02 3.74 0 0 Z " fill="#A8341A" transform="translate(124,61)"/>
<path d="M0 0 C2.18975773 3.28463659 2.99806563 6.20696275 4 10 C3.01 10.33 2.02 10.66 1 11 C0.67 10.01 0.34 9.02 0 8 C-0.99 8.495 -0.99 8.495 -2 9 C-1.34 6.03 -0.68 3.06 0 0 Z " fill="#781D0B" transform="translate(140,43)"/>
<path d="M0 0 C1.09570312 0.00902344 2.19140625 0.01804687 3.3203125 0.02734375 C4.16335937 0.03894531 5.00640625 0.05054687 5.875 0.0625 C5.875 0.3925 5.875 0.7225 5.875 1.0625 C3.99593148 1.64090546 2.09500831 2.14869817 0.1875 2.625 C-0.86824219 2.89441406 -1.92398438 3.16382813 -3.01171875 3.44140625 C-5.82554889 4.00276007 -8.26930473 4.18435713 -11.125 4.0625 C-7.43175139 0.20137645 -5.34502415 -0.05686196 0 0 Z " fill="#A12E14" transform="translate(66.125,28.9375)"/>
<path d="M0 0 C0.33 0.66 0.66 1.32 1 2 C1.99 1.34 2.98 0.68 4 0 C5.32 0 6.64 0 8 0 C8 0.99 8 1.98 8 3 C10.96260526 4.23757877 10.96260526 4.23757877 14 5 C13.01 5.66 12.02 6.32 11 7 C8.8125 6.25 8.8125 6.25 7 5 C7 4.34 7 3.68 7 3 C4.69 3 2.38 3 0 3 C0 2.01 0 1.02 0 0 Z " fill="#931B20" transform="translate(79,79)"/>
<path d="M0 0 C1.16144531 0.00902344 2.32289062 0.01804687 3.51953125 0.02734375 C4.39996094 0.03894531 5.28039062 0.05054687 6.1875 0.0625 C6.1875 0.7225 6.1875 1.3825 6.1875 2.0625 C4.12581015 2.25870767 2.06309002 2.44410753 0 2.625 C-1.14855469 2.72941406 -2.29710937 2.83382812 -3.48046875 2.94140625 C-6.50416688 3.05129446 -8.91207398 2.88729158 -11.8125 2.0625 C-11.8125 1.7325 -11.8125 1.4025 -11.8125 1.0625 C-7.85413822 -0.0034995 -4.08127475 -0.041225 0 0 Z " fill="#AA4045" transform="translate(62.8125,75.9375)"/>
<path d="M0 0 C1 3 1 3 -0.43359375 6.13671875 C-1.09135973 7.3260128 -1.75977815 8.50946371 -2.4375 9.6875 C-2.77587891 10.29400391 -3.11425781 10.90050781 -3.46289062 11.52539062 C-4.29957915 13.0220025 -5.14862831 14.51169189 -6 16 C-6.6796875 14.35546875 -6.6796875 14.35546875 -7 12 C-5.8203125 9.23828125 -5.8203125 9.23828125 -4.125 6.3125 C-3.57070312 5.33925781 -3.01640625 4.36601563 -2.4453125 3.36328125 C-1 1 -1 1 0 0 Z " fill="#F4B847" transform="translate(13,34)"/>
<path d="M0 0 C5.76975155 -0.40489485 10.45912641 0.41689326 16 2 C15.01 2.66 14.02 3.32 13 4 C12.01 3.67 11.02 3.34 10 3 C8.10787263 2.77820215 6.21115528 2.59385985 4.3125 2.4375 C3.31863281 2.35371094 2.32476562 2.26992187 1.30078125 2.18359375 C0.16189453 2.09271484 0.16189453 2.09271484 -1 2 C-0.67 1.34 -0.34 0.68 0 0 Z " fill="#7D2C04" transform="translate(80,3)"/>
<path d="M0 0 C0.66 0 1.32 0 2 0 C2.21868414 3.82697241 1.76294726 6.57204699 0 10 C-0.66 10 -1.32 10 -2 10 C-2 9.34 -2 8.68 -2 8 C-3.32 8.33 -4.64 8.66 -6 9 C-5.34 8.01 -4.68 7.02 -4 6 C-3.01 6 -2.02 6 -1 6 C-0.67 4.02 -0.34 2.04 0 0 Z " fill="#F9C130" transform="translate(72,97)"/>
<path d="M0 0 C0.99 0 1.98 0 3 0 C2.5020163 3.73487777 2.12508244 5.81237635 0 9 C-0.66 9 -1.32 9 -2 9 C-2.33 9.66 -2.66 10.32 -3 11 C-2.32818331 7.19303874 -1.49587335 3.57347522 0 0 Z " fill="#F3BB2E" transform="translate(76,97)"/>
<path d="M0 0 C6.46153846 0.46153846 6.46153846 0.46153846 8 2 C8.04080783 3.99958364 8.04254356 6.00045254 8 8 C7.01 8 6.02 8 5 8 C5 6.35 5 4.7 5 3 C3.02 3 1.04 3 -1 3 C-0.67 2.01 -0.34 1.02 0 0 Z " fill="#FCE2DE" transform="translate(84,75)"/>
<path d="M0 0 C4.47400242 -0.36275695 4.47400242 -0.36275695 6.8125 1.25 C8 3 8 3 8 7 C7.34 7 6.68 7 6 7 C5.65657551 5.66923011 5.32380126 4.33568021 5 3 C4.34 2.67 3.68 2.34 3 2 C3.33 3.98 3.66 5.96 4 8 C3.34 7.67 2.68 7.34 2 7 C1.26924352 4.6859378 0.59861742 2.35171131 0 0 Z " fill="#F2B63A" transform="translate(95,92)"/>
<path d="M0 0 C0 1.32 0 2.64 0 4 C0.66 4.33 1.32 4.66 2 5 C0.02 5.99 -1.96 6.98 -4 8 C-4.6875 5.6875 -4.6875 5.6875 -5 3 C-3.40083326 0.79162689 -2.76966516 0 0 0 Z " fill="#F7BE40" transform="translate(40,44)"/>
<path d="M0 0 C0.33 0 0.66 0 1 0 C1.125 3.375 1.125 3.375 1 7 C0.34 7.66 -0.32 8.32 -1 9 C-1.99 9 -2.98 9 -4 9 C-2.25 2.25 -2.25 2.25 0 0 Z " fill="#FAC128" transform="translate(99,103)"/>
<path d="M0 0 C0.66 0 1.32 0 2 0 C2.08159574 4.16138263 1.98248524 7.9472484 1 12 C-0.625 10.375 -0.625 10.375 -2 8 C-1.1875 4.875 -1.1875 4.875 0 2 C0 1.34 0 0.68 0 0 Z " fill="#73190B" transform="translate(10,96)"/>
<path d="M0 0 C1.65 0.33 3.3 0.66 5 1 C4.01 1.33 3.02 1.66 2 2 C1.32882152 4.94363898 1.32882152 4.94363898 1 8 C0.67 8.66 0.34 9.32 0 10 C-0.66 10 -1.32 10 -2 10 C-2.625 7.5 -2.625 7.5 -3 5 C-2.34 5 -1.68 5 -1 5 C-0.33652369 2.51599015 -0.33652369 2.51599015 0 0 Z " fill="#782708" transform="translate(105,89)"/>
<path d="M0 0 C1.8871875 0.0309375 1.8871875 0.0309375 3.8125 0.0625 C3.8125 1.3825 3.8125 2.7025 3.8125 4.0625 C1.4375 4.1875 1.4375 4.1875 -1.1875 4.0625 C-1.8475 3.4025 -2.5075 2.7425 -3.1875 2.0625 C-5.25624034 1.4199765 -5.25624034 1.4199765 -7.1875 1.0625 C-4.43671116 0.14557039 -2.82801087 -0.04636083 0 0 Z " fill="#F4DBDA" transform="translate(70.1875,37.9375)"/>
<path d="M0 0 C0.66 0 1.32 0 2 0 C1.67 3.96 1.34 7.92 1 12 C0.34 12 -0.32 12 -1 12 C-1.16022099 3.82872928 -1.16022099 3.82872928 0 0 Z " fill="#F8C51B" transform="translate(24,98)"/>
<path d="M0 0 C2.60045875 2.3024119 3.84739183 4.49896677 5.1875 7.6875 C5.53167969 8.49574219 5.87585938 9.30398437 6.23046875 10.13671875 C6.48441406 10.75160156 6.73835938 11.36648437 7 12 C6.01 12.495 6.01 12.495 5 13 C5 12.01 5 11.02 5 10 C4.01 9.67 3.02 9.34 2 9 C1.26953125 6.93359375 1.26953125 6.93359375 0.8125 4.4375 C0.65394531 3.61121094 0.49539062 2.78492188 0.33203125 1.93359375 C0.16767578 0.97646484 0.16767578 0.97646484 0 0 Z " fill="#9B2218" transform="translate(121,51)"/>
<path d="M0 0 C4.13621084 3.3810038 7.81316569 6.66590534 11 11 C10.01 11 9.02 11 8 11 C8 10.34 8 9.68 8 9 C7.01 8.67 6.02 8.34 5 8 C0 2.53488372 0 2.53488372 0 0 Z " fill="#6B1901" transform="translate(16,122)"/>
<path d="M0 0 C0.66 0 1.32 0 2 0 C1.67 3.3 1.34 6.6 1 10 C0.01 10 -0.98 10 -2 10 C-2.21868414 6.17302759 -1.76294726 3.42795301 0 0 Z " fill="#F4B839" transform="translate(44,97)"/>
<path d="M0 0 C3 1 3 1 4.6875 4.25 C5.83944321 7.54126631 6.31025348 9.5872117 6 13 C3.4345406 10.4345406 3.45953913 8.52313332 3 5 C2.34 5 1.68 5 1 5 C0.375 2.5 0.375 2.5 0 0 Z " fill="#FACC37" transform="translate(118,56)"/>
<path d="M0 0 C2.475 0.495 2.475 0.495 5 1 C4.6875 3.5 4.6875 3.5 4 6 C3.01 6 2.02 6 1 6 C0.67 4.02 0.34 2.04 0 0 Z " fill="#AA2222" transform="translate(70,44)"/>
<path d="M0 0 C0.33 0.99 0.66 1.98 1 3 C0.01 4.485 0.01 4.485 -1 6 C-1 6.66 -1 7.32 -1 8 C-2.98 8 -4.96 8 -7 8 C-6.02133662 6.85373678 -5.04205413 5.70800212 -4.0625 4.5625 C-3.51722656 3.92441406 -2.97195312 3.28632813 -2.41015625 2.62890625 C-1.63204305 1.73008851 -0.84063472 0.84063472 0 0 Z " fill="#772305" transform="translate(27,20)"/>
<path d="M0 0 C0 0.66 0 1.32 0 2 C-0.99 2 -1.98 2 -3 2 C-3 2.66 -3 3.32 -3 4 C-6.4352048 6.29013653 -7.985331 6.17842973 -12 6 C-10.02433812 4.02433812 -8.47662906 3.10420928 -6 1.875 C-5.29875 1.52179688 -4.5975 1.16859375 -3.875 0.8046875 C-2 0 -2 0 0 0 Z " fill="#843108" transform="translate(114,139)"/>
<path d="M0 0 C0.66 0 1.32 0 2 0 C0.75700935 7.81308411 0.75700935 7.81308411 0 10 C-0.66 10 -1.32 10 -2 10 C-2.17606802 6.12650354 -2.2579214 3.26144202 0 0 Z " fill="#F7BF33" transform="translate(110,97)"/>
<path d="M0 0 C0.33 0 0.66 0 1 0 C1 3.63 1 7.26 1 11 C1.66 11 2.32 11 3 11 C2.67 12.98 2.34 14.96 2 17 C0 15 0 15 -0.1953125 11.5234375 C-0.18201493 10.14049032 -0.15816232 8.75761346 -0.125 7.375 C-0.11597656 6.66859375 -0.10695312 5.9621875 -0.09765625 5.234375 C-0.07407603 3.48943902 -0.03820461 1.74467705 0 0 Z " fill="#661101" transform="translate(3,69)"/>
<path d="M0 0 C0.33 0.66 0.66 1.32 1 2 C3.06381575 1.67156616 3.06381575 1.67156616 5 1 C4.125 4 4.125 4 3 7 C2.34 7 1.68 7 1 7 C-0.1875 4.0625 -0.1875 4.0625 -1 1 C-0.67 0.67 -0.34 0.34 0 0 Z " fill="#F7DAD8" transform="translate(74,67)"/>
<path d="M0 0 C3 2 3 2 3.6875 5.125 C3.790625 6.07375 3.89375 7.0225 4 8 C3.34 8 2.68 8 2 8 C1.375 6 1.375 6 1 4 C0.01 5.485 0.01 5.485 -1 7 C-1.66 7 -2.32 7 -3 7 C-1.125 1.125 -1.125 1.125 0 0 Z " fill="#F4D5D4" transform="translate(90,64)"/>
<path d="M0 0 C2.0625 2.3125 2.0625 2.3125 4 5 C3.67 5.99 3.34 6.98 3 8 C2.34 8 1.68 8 1 8 C0.33333333 6.66666667 -0.33333333 5.33333333 -1 4 C-1.99 3.34 -2.98 2.68 -4 2 C-2.68 2 -1.36 2 0 2 C0 1.34 0 0.68 0 0 Z " fill="#F8DEDA" transform="translate(60,62)"/>
<path d="M0 0 C-0.588562 2.354248 -1.25740651 4.68970915 -2 7 C-2.66 7 -3.32 7 -4 7 C-4.33 7.66 -4.66 8.32 -5 9 C-5.1875 5.625 -5.1875 5.625 -5 2 C-2 0 -2 0 0 0 Z " fill="#FBCF41" transform="translate(35,53)"/>
<path d="M0 0 C0.928125 0.20625 1.85625 0.4125 2.8125 0.625 C2.8125 1.285 2.8125 1.945 2.8125 2.625 C1.8225 2.955 0.8325 3.285 -0.1875 3.625 C-0.8475 3.295 -1.5075 2.965 -2.1875 2.625 C-2.5175 3.285 -2.8475 3.945 -3.1875 4.625 C-4.1775 3.635 -5.1675 2.645 -6.1875 1.625 C-3.1875 -0.375 -3.1875 -0.375 0 0 Z " fill="#701805" transform="translate(49.1875,106.375)"/>
<path d="M0 0 C2.15726834 2.15726834 2.51754834 3.17977952 3.25 6.0625 C3.44078125 6.77535156 3.6315625 7.48820312 3.828125 8.22265625 C3.88484375 8.80917969 3.9415625 9.39570312 4 10 C3.01 10.495 3.01 10.495 2 11 C1.47203285 9.35644124 0.95280018 7.71007411 0.4375 6.0625 C0.14746094 5.14597656 -0.14257812 4.22945313 -0.44140625 3.28515625 C-0.62574219 2.53105469 -0.81007813 1.77695313 -1 1 C-0.67 0.67 -0.34 0.34 0 0 Z " fill="#E9A93B" transform="translate(5,96)"/>
<path d="M0 0 C1.67542976 0.28604898 3.34385343 0.61781233 5 1 C4.38125 1.061875 3.7625 1.12375 3.125 1.1875 C0.72238859 1.828919 0.72238859 1.828919 -0.25 4.5625 C-0.4975 5.366875 -0.745 6.17125 -1 7 C-1.66 6.67 -2.32 6.34 -3 6 C-1.125 1.125 -1.125 1.125 0 0 Z " fill="#EEB343" transform="translate(116,97)"/>
<path d="M0 0 C2.475 0.495 2.475 0.495 5 1 C4.67 2.32 4.34 3.64 4 5 C4.66 5 5.32 5 6 5 C4.768606 7.46278801 3.21935077 8.42497687 1 10 C1.66 7.36 2.32 4.72 3 2 C2.01 1.67 1.02 1.34 0 1 C0 0.67 0 0.34 0 0 Z " fill="#7E2F07" transform="translate(76,95)"/>
<path d="M0 0 C-0.66 0 -1.32 0 -2 0 C-2 0.66 -2 1.32 -2 2 C-3.65438613 2.69658363 -5.32254318 3.36096883 -7 4 C-7.66 4.66 -8.32 5.32 -9 6 C-8.75 3.625 -8.75 3.625 -8 1 C-5.12800349 -1.17875597 -3.33791789 -1.19211353 0 0 Z " fill="#A44026" transform="translate(68,37)"/>
<path d="M0 0 C0.33 0 0.66 0 1 0 C1.1546875 1.423125 1.1546875 1.423125 1.3125 2.875 C1.68539295 6.29107501 1.68539295 6.29107501 5 8 C3.125 8.625 3.125 8.625 1 9 C0.34 8.34 -0.32 7.68 -1 7 C-0.625 3.375 -0.625 3.375 0 0 Z " fill="#813204" transform="translate(26,102)"/>
<path d="M0 0 C0.66 0.99 1.32 1.98 2 3 C1.67 3.66 1.34 4.32 1 5 C1.99 5.33 2.98 5.66 4 6 C3.195625 5.814375 2.39125 5.62875 1.5625 5.4375 C0.716875 5.293125 -0.12875 5.14875 -1 5 C-1.33 5.33 -1.66 5.66 -2 6 C-3.66617115 6.04063832 -5.33388095 6.042721 -7 6 C-6.67 5.34 -6.34 4.68 -6 4 C-5.360625 3.855625 -4.72125 3.71125 -4.0625 3.5625 C-1.61789145 3.13834965 -1.61789145 3.13834965 0 0 Z " fill="#ECAB51" transform="translate(63,101)"/>
<path d="M0 0 C2.125 0.375 2.125 0.375 4 1 C3.67 1.99 3.34 2.98 3 4 C2.67 3.34 2.34 2.68 2 2 C0.29159719 3.63412443 -0.93453047 4.86906094 -2 7 C-2.66 7 -3.32 7 -4 7 C-2.92598892 4.08482708 -2.22189824 2.22189824 0 0 Z " fill="#F2B641" transform="translate(59,97)"/>
<path d="M0 0 C1.32 0 2.64 0 4 0 C4.66 1.65 5.32 3.3 6 5 C2.37 4.67 -1.26 4.34 -5 4 C-5 3.67 -5 3.34 -5 3 C-2.36 3 0.28 3 3 3 C3 2.34 3 1.68 3 1 C2.01 0.67 1.02 0.34 0 0 Z " fill="#E3B9B8" transform="translate(42,70)"/>
<path d="M0 0 C1.65 0.33 3.3 0.66 5 1 C4.38125 1.061875 3.7625 1.12375 3.125 1.1875 C0.7409707 1.81552157 0.7409707 1.81552157 -0.125 4.4375 C-0.41375 5.283125 -0.7025 6.12875 -1 7 C-1.66 7.66 -2.32 8.32 -3 9 C-2.67 7.02 -2.34 5.04 -2 3 C-1.34 3 -0.68 3 0 3 C0 2.01 0 1.02 0 0 Z " fill="#A3231D" transform="translate(102,36)"/>
<path d="M0 0 C0.33 0 0.66 0 1 0 C1 3.96 1 7.92 1 12 C0.01 11.34 -0.98 10.68 -2 10 C-1.890625 7.6171875 -1.890625 7.6171875 -1.25 4.875 C-1.04890625 3.96492188 -0.8478125 3.05484375 -0.640625 2.1171875 C-0.42921875 1.41851562 -0.2178125 0.71984375 0 0 Z " fill="#99353A" transform="translate(98,77)"/>
<path d="M0 0 C1.32 0 2.64 0 4 0 C4 1.65 4 3.3 4 5 C2.68 5 1.36 5 0 5 C0 3.35 0 1.7 0 0 Z " fill="#AA222C" transform="translate(55,67)"/>
<path d="M0 0 C3.76997142 0.53856735 5.60858222 2.07715605 8 5 C7.67 5.66 7.34 6.32 7 7 C5.0625 6.25 5.0625 6.25 3 5 C2.375 2.9375 2.375 2.9375 2 1 C1.34 0.67 0.68 0.34 0 0 Z " fill="#F9CA3C" transform="translate(108,46)"/>
<path d="M0 0 C0.99 0.33 1.98 0.66 3 1 C3.6875 3.0625 3.6875 3.0625 4 5 C1.36 4.67 -1.28 4.34 -4 4 C-2.1875 1.9375 -2.1875 1.9375 0 0 Z " fill="#F7B850" transform="translate(46,38)"/>
<path d="M0 0 C3.91211733 1.15585285 6.8745041 2.35534962 10 5 C7.99759451 4.68143549 5.99788438 4.34578768 4 4 C2.824375 3.814375 2.824375 3.814375 1.625 3.625 C1.08875 3.41875 0.5525 3.2125 0 3 C0 2.01 0 1.02 0 0 Z " fill="#722103" transform="translate(102,8)"/>
<path d="M0 0 C-1.26418246 0.69965443 -2.53665402 1.38434763 -3.8125 2.0625 C-4.52019531 2.44535156 -5.22789063 2.82820312 -5.95703125 3.22265625 C-8 4 -8 4 -11 3 C-4.03571429 -1.41964286 -4.03571429 -1.41964286 0 0 Z " fill="#F2B648" transform="translate(50,7)"/>
<path d="M0 0 C0.99 0.33 1.98 0.66 3 1 C2.01 2.485 2.01 2.485 1 4 C-2.625 4.6875 -2.625 4.6875 -6 5 C-5.195625 4.360625 -4.39125 3.72125 -3.5625 3.0625 C-1.7249496 1.59396498 -1.7249496 1.59396498 0 0 Z " fill="#7A220A" transform="translate(120,134)"/>
<path d="M0 0 C0.33 0.66 0.66 1.32 1 2 C0.06553465 4.03144641 -0.93224776 6.03533587 -2 8 C-3.0625 6.1875 -3.0625 6.1875 -4 4 C-3.67 3.01 -3.34 2.02 -3 1 C-2.01 0.67 -1.02 0.34 0 0 Z " fill="#F2B827" transform="translate(29,94)"/>
<path d="M0 0 C2.52588702 2.36292656 3.88820837 3.66462511 5 7 C3.125 6.8125 3.125 6.8125 1 6 C-0.3125 3.5 -0.3125 3.5 -1 1 C-0.67 0.67 -0.34 0.34 0 0 Z " fill="#9C2A33" transform="translate(66,69)"/>
<path d="M0 0 C0.66 0 1.32 0 2 0 C2 0.99 2 1.98 2 3 C2.66 3.33 3.32 3.66 4 4 C3 5 3 5 0.4375 5.0625 C-0.7690625 5.0315625 -0.7690625 5.0315625 -2 5 C-1.125 2.5 -1.125 2.5 0 0 Z " fill="#FDFCFC" transform="translate(49,69)"/>
<path d="M0 0 C0.33 0 0.66 0 1 0 C1.25 3.3125 1.25 3.3125 1 7 C-1.015625 8.73046875 -1.015625 8.73046875 -3 10 C-2.52633908 8.33176027 -2.0459381 6.6654327 -1.5625 5 C-1.29566406 4.071875 -1.02882813 3.14375 -0.75390625 2.1875 C-0.38072266 1.1046875 -0.38072266 1.1046875 0 0 Z " fill="#812D08" transform="translate(8,46)"/>
<path d="M0 0 C0.33 0.66 0.66 1.32 1 2 C3.02463255 2.65213292 3.02463255 2.65213292 5 3 C4.67 3.66 4.34 4.32 4 5 C1.04197216 4.59199616 -1.38665046 3.40000868 -4 2 C-2.68 1.34 -1.36 0.68 0 0 Z " fill="#792605" transform="translate(112,105)"/>
<path d="M0 0 C3 -0.4375 3 -0.4375 6 0 C6.875 2 6.875 2 7 4 C6.01 4 5.02 4 4 4 C4 3.01 4 2.02 4 1 C2.35 1.66 0.7 2.32 -1 3 C-0.67 2.01 -0.34 1.02 0 0 Z " fill="#ECA74D" transform="translate(88,103)"/>
<path d="M0 0 C0.99 0.33 1.98 0.66 3 1 C4.66362417 1.34820041 6.32995171 1.68404492 8 2 C7.67 2.66 7.34 3.32 7 4 C2.6825855 4.31980848 0.66014151 4.44009434 -3 2 C-2.01 1.34 -1.02 0.68 0 0 Z " fill="#7A2410" transform="translate(28,89)"/>
<path d="M0 0 C2.875 -0.1875 2.875 -0.1875 6 0 C6.66 0.99 7.32 1.98 8 3 C5.125 3.1875 5.125 3.1875 2 3 C1.34 2.01 0.68 1.02 0 0 Z " fill="#FDFBF7" transform="translate(56,73)"/>
<path d="M0 0 C1.32 0 2.64 0 4 0 C3.67 1.65 3.34 3.3 3 5 C2.01 4.67 1.02 4.34 0 4 C0 2.68 0 1.36 0 0 Z " fill="#984249" transform="translate(75,56)"/>
<path d="M0 0 C-0.99 0.185625 -0.99 0.185625 -2 0.375 C-2.66 0.58125 -3.32 0.7875 -4 1 C-4 1.66 -4 2.32 -4 3 C-3.34 3.33 -2.68 3.66 -2 4 C-3.32 4.33 -4.64 4.66 -6 5 C-6 3.68 -6 2.36 -6 1 C-2.66666667 -1.33333333 -2.66666667 -1.33333333 0 0 Z " fill="#680D0B" transform="translate(35,18)"/>
<path d="M0 0 C4.31392226 0.4793247 6.16569547 1.7457985 9 5 C4.68607774 4.5206753 2.83430453 3.2542015 0 0 Z " fill="#E8A73D" transform="translate(116,15)"/>
<path d="M0 0 C0 0.66 0 1.32 0 2 C-1.96615661 3.0650015 -3.96726926 4.06833174 -6 5 C-6 3.68 -6 2.36 -6 1 C-3 0 -3 0 0 0 Z " fill="#752006" transform="translate(120,131)"/>
<path d="M0 0 C3.0625 -0.3125 3.0625 -0.3125 6 0 C6 0.66 6 1.32 6 2 C1.61538462 5 1.61538462 5 -1 5 C-0.875 2.5 -0.875 2.5 0 0 Z " fill="#B2750B" transform="translate(65,101)"/>
<path d="M0 0 C2.97 0.495 2.97 0.495 6 1 C6 1.99 6 2.98 6 4 C3.5625 4.25 3.5625 4.25 1 4 C0.1875 2 0.1875 2 0 0 Z " fill="#6D1116" transform="translate(29,100)"/>
<path d="M0 0 C0.66 0.66 1.32 1.32 2 2 C1.96712417 4.72869407 1.43602229 7.2966618 1 10 C-1.56687367 6.1496895 -0.83288724 4.41430237 0 0 Z " fill="#DD9934" transform="translate(146,88)"/>
<path d="M0 0 C0 0.99 0 1.98 0 3 C-2.64 2.67 -5.28 2.34 -8 2 C-4.91190305 0.23537317 -3.76687864 0 0 0 Z " fill="#711B0B" transform="translate(101,1)"/>
</svg>
